<?xml version="1.0" encoding="utf-8"?>
<!-- Generator: Adobe Illustrator 19.0.0, SVG Export Plug-In . SVG Version: 6.00 Build 0)  -->
<svg version="1.1" id="Layer_1" xmlns="http://www.w3.org/2000/svg" xmlns:xlink="http://www.w3.org/1999/xlink" x="0px" y="0px"
	 viewBox="334 37 1280 720" style="enable-background:new 334 37 1280 720;" xml:space="preserve">
<style type="text/css">
	.st0{fill:#C90012;}
	.st1{fill:url(#SVGID_1_);}
	.st2{opacity:0.2;enable-background:new    ;}
	.st3{fill:#69FF68;}
	.st4{opacity:0.2;}
	.st5{fill:#33FF00;}
	.st6{fill:#FFFFFF;}
</style>
<g id="Layer_2">
</g>
<g id="Ebene_1">
	<path class="st0" d="M765.5,394.9L765.5,394.9L765.5,394.9z"/>
	<path class="st0" d="M765.5,312L765.5,312L765.5,312z"/>
	<path class="st0" d="M765.5,229.1L765.5,229.1L765.5,229.1z"/>
	<path class="st0" d="M765.5,270.6L765.5,270.6L765.5,270.6z"/>
	<path class="st0" d="M765.5,436.4L765.5,436.4L765.5,436.4z"/>
	<path class="st0" d="M765.5,353.5L765.5,353.5L765.5,353.5z"/>
	<path class="st0" d="M765.5,187.7L765.5,187.7L765.5,187.7z"/>
	
		<linearGradient id="SVGID_1_" gradientUnits="userSpaceOnUse" x1="502.3134" y1="706.1503" x2="707.8026" y2="391.1663" gradientTransform="matrix(1 0 0 1 -50 -211)">
		<stop  offset="0" style="stop-color:#004E73"/>
		<stop  offset="1" style="stop-color:#00A1B0"/>
	</linearGradient>
	<path class="st1" d="M765.5,198.8c0-6.1-5-11.1-11.1-11.1H403.6c-6.1,0-14.6,3.5-19,7.9l-25.7,25.7c-4.3,4.3-7.9,12.9-7.9,19v226.5
		c0,6.1,5,11.1,11.1,11.1H713c6.1,0,14.6-3.5,19-7.9l25.7-25.7c4.3-4.3,7.9-12.9,7.9-19L765.5,198.8z"/>
	<path class="st2" d="M716.2,345.6l-25.7-25.7c-4.3-4.3-12.9-7.9-19-7.9h-19.2c-6.1,0-11.1,0-11.1,0s3.5-3.5,7.9-7.9l67.2-67.2
		c4.3-4.3,2.9-7.9-3.3-7.9H610.8c-6.1,0-14.6,3.5-19,7.9L359.1,469.7c-1.8,1.8-3.5,3.5-4.9,4.9c2,2,4.8,3.3,7.8,3.3c0,0,0,0,0,0h100
		h168c6.1,0,11.1,0,11.1,0c0,0,3.6-3.6,7.9-7.9l67.1-67.1c4.3-4.3,7.9-12.9,7.9-19v-19.2C724.1,358.5,720.5,349.9,716.2,345.6z"/>
	<path class="st3" d="M610.8,353.5c-6.1,0-14.6-3.5-19-7.9l-25.7-25.7c-4.3-4.3-7.9-12.9-7.9-19l0-19.2c0-6.1,3.5-14.6,7.8-19
		l25.7-25.7c4.3-4.3,12.9-7.9,19-7.9H713c6.1,0,7.6,3.5,3.3,7.9l-25.7,25.7c-4.3,4.3-12.9,7.9-19,7.9h-60.7c-6.1,0-11.1,5-11.1,11.1
		v19.2c0,6.1,5,11.1,11.1,11.1l60.7,0c6.1,0,14.6,3.5,19,7.9l25.7,25.7c4.3,4.3,7.9,12.9,7.9,19v19.2c0,6.1-3.5,14.6-7.9,19
		l-25.7,25.7c-4.3,4.3-12.9,7.9-19,7.9h-60.7c-6.1,0-14.6-3.5-19-7.9l-25.7-25.7c-4.3-4.3-2.9-7.9,3.3-7.9h102.1
		c6.1,0,11.1-5,11.1-11.1v-19.2c0-6.1,0-11.1,0-11.1c0,0-5,0-11.1,0L610.8,353.5z"/>
	<g class="st4">
		<path d="M351,323.7c0-6.1,0-11.2,0-11.4s3.5-3.8,7.9-8.1L426,237c4.3-4.3,12.9-7.9,19-7.9h102.2c6.1,0,7.6,3.5,3.3,7.9l-67.2,67.2
			c-4.3,4.3-7.9,7.9-7.9,7.9s5,0,11.1,0l19.2,0c6.1,0,10.8,5,10.3,11.1l-1.1,15.6c-0.4,6.1-1.7,12-2.8,13.1
			c-1.1,1.1-5.6,5.6-9.9,9.9L477,386.9c-4.3,4.3-7.9,7.9-7.9,7.9c0,0,4.9,0.1,11,0.1h18c6.1,0,14.8,3.4,19.3,7.5l26.8,24.7
			c4.5,4.1,8.2,7.6,8.1,7.8c-0.1,0.1-3.8,3.8-8.1,8.1l-34.8,34.9l-147.2,0c-6.1,0-11.1-5-11.1-11.1L351,323.7z"/>
	</g>
	<path class="st3" d="M445,394.9c-6.1,0-11.1-5-11.1-11.1v-19.2c0-6.1,5-11.1,11.1-11.1h60.7c6.1,0,11.1-5,11.1-11.1v-19.2
		c0-6.1-5-11.1-11.1-11.1H445c-6.1,0-11.1-5-11.1-11.1v-19.2c0-6.1,5-11.1,11.1-11.1h60.7c6.1,0,14.6-3.5,19-7.9l25.7-25.7
		c4.3-4.3,2.9-7.9-3.3-7.9H445c-6.1,0-14.6,3.5-19,7.9l-25.7,25.7c-4.3,4.3-7.9,12.9-7.9,19v102.1c0,6.1,3.5,14.6,7.9,19l25.7,25.7
		c4.3,4.3,12.9,7.9,19,7.9h102.1c6.1,0,7.6-3.5,3.3-7.9l-25.7-25.7c-4.3-4.3-12.9-7.9-19-7.9L445,394.9z"/>
	<g>
		<path class="st5" d="M892.6,279.4c-1.6,3.8-3.9,7.1-6.7,9.9c-2.8,2.8-6.1,5.1-9.9,6.7c-3.8,1.6-7.8,2.4-12.1,2.4h-8.5
			c-4.3,0-8.3-0.8-12.1-2.4c-3.8-1.6-7.1-3.8-9.9-6.7c-2.8-2.8-5.1-6.1-6.7-9.9c-1.6-3.8-2.4-7.8-2.4-12.1v-47.9
			c0-4.3,0.8-8.3,2.4-12.1c1.6-3.8,3.8-7.1,6.7-9.9c2.8-2.8,6.1-5.1,9.9-6.7c3.8-1.6,7.8-2.4,12.1-2.4h8.5c4.3,0,8.3,0.8,12.1,2.4
			c3.8,1.6,7.1,3.9,9.9,6.7s5.1,6.1,6.7,9.9c1.6,3.8,2.4,7.8,2.4,12.1v25h-58.1V268c0,2.6,0.5,5,1.5,7.2c1,2.2,2.3,4.2,3.9,5.9
			c1.7,1.7,3.6,3,5.9,3.9c2.2,1,4.6,1.4,7.2,1.4h8.5c2.6,0,5-0.5,7.2-1.4c2.2-1,4.2-2.3,5.9-3.9c1.7-1.7,3-3.6,3.9-5.9
			c1-2.2,1.5-4.6,1.5-7.2v-7L895,263v4.2C895,271.6,894.2,275.6,892.6,279.4z M882.3,218.7c0-2.6-0.5-5-1.5-7.2
			c-1-2.2-2.3-4.2-3.9-5.9c-1.7-1.7-3.6-3-5.9-3.9c-2.2-1-4.6-1.4-7.2-1.4h-8.5c-2.6,0-5,0.5-7.2,1.4c-2.2,1-4.2,2.3-5.9,3.9
			c-1.7,1.7-3,3.6-3.9,5.9c-1,2.2-1.5,4.6-1.5,7.2v15.7h45.4L882.3,218.7L882.3,218.7z"/>
		<path class="st5" d="M1032.5,296.4v-77.7c0-2.6-0.5-5-1.5-7.2c-1-2.2-2.3-4.2-3.9-5.9c-1.7-1.7-3.6-3-5.9-3.9
			c-2.2-1-4.6-1.4-7.2-1.4h-6.3c-2.6,0-5,0.5-7.2,1.4c-2.2,1-4.2,2.3-5.9,3.9c-1.7,1.7-3,3.6-4,5.9c-1,2.2-1.4,4.6-1.4,7.2v77.7
			h-12.6v-77.7c0-2.6-0.5-5-1.4-7.2c-1-2.2-2.3-4.2-4-5.9c-1.7-1.7-3.7-3-5.9-3.9c-2.2-1-4.6-1.4-7.2-1.4h-6.3c-2.6,0-5,0.5-7.2,1.4
			c-2.2,1-4.2,2.3-5.9,3.9c-1.7,1.7-3,3.6-3.9,5.9c-1,2.2-1.5,4.6-1.5,7.2v77.7h-12.7V190.3h4.2l6.9,10.8c2.9-3.9,6.5-7.1,10.9-9.4
			c4.4-2.3,9.2-3.5,14.3-3.5h1c6,0,11.4,1.5,16.3,4.5c4.8,3,8.6,6.9,11.2,11.8c1.3-2.4,2.9-4.6,4.9-6.6c1.9-2,4.1-3.7,6.4-5.1
			c2.4-1.4,4.9-2.5,7.7-3.3c2.8-0.8,5.6-1.2,8.6-1.2h1c4.3,0,8.3,0.8,12.1,2.4c3.8,1.6,7.1,3.9,9.9,6.7c2.8,2.8,5.1,6.1,6.7,9.9
			c1.6,3.8,2.4,7.8,2.4,12.1v77L1032.5,296.4L1032.5,296.4L1032.5,296.4z"/>
		<path class="st5" d="M1137.3,296.4l-7-10.8c-2.9,3.9-6.5,7.1-10.9,9.4c-4.3,2.3-9.1,3.5-14.3,3.5h-3.2c-4.3,0-8.3-0.8-12.1-2.4
			c-3.8-1.6-7.1-3.8-9.9-6.7c-2.8-2.8-5.1-6.1-6.7-9.9c-1.6-3.8-2.4-7.8-2.4-12.1v-77h12.7V268c0,2.6,0.5,5,1.4,7.2
			c1,2.2,2.3,4.2,3.9,5.9c1.7,1.7,3.6,3,5.9,3.9c2.2,1,4.6,1.4,7.2,1.4h8.5c2.5,0,5-0.5,7.2-1.4c2.2-1,4.2-2.3,5.9-3.9
			c1.7-1.7,3-3.6,3.9-5.9c1-2.2,1.5-4.6,1.5-7.2v-77.7h12.7v106.1H1137.3z"/>
		<path class="st5" d="M1171.3,296.4V147.8h12.7v148.5H1171.3z"/>
		<path class="st5" d="M1280.4,296.4l-7-10.6c-2.9,3.8-6.5,6.9-10.9,9.2c-4.3,2.3-9.1,3.5-14.3,3.5h-3.2c-4.3,0-8.3-0.8-12.1-2.4
			c-3.8-1.6-7.1-3.8-9.9-6.7c-2.8-2.8-5.1-6.1-6.7-9.9c-1.6-3.8-2.4-7.8-2.4-12.1v-1c0-4.3,0.8-8.3,2.4-12.1
			c1.6-3.8,3.8-7.1,6.7-9.9c2.8-2.8,6.1-5.1,9.9-6.7c3.8-1.6,7.8-2.4,12.1-2.4h26.9v-16.4c0-2.6-0.5-5-1.4-7.2
			c-1-2.2-2.3-4.2-3.9-5.9c-1.7-1.7-3.6-3-5.9-3.9c-2.2-1-4.6-1.4-7.2-1.4h-7.5c-2.6,0-5,0.5-7.2,1.4c-2.2,1-4.2,2.3-5.9,3.9
			c-1.7,1.7-3,3.6-3.9,5.9c-1,2.2-1.4,4.6-1.4,7.2v3.8l-12.7-2.1v-1c0-4.3,0.8-8.3,2.4-12.1c1.6-3.8,3.9-7.1,6.7-9.9
			c2.8-2.8,6.1-5.1,9.9-6.7c3.8-1.6,7.8-2.4,12.1-2.4h7.5c4.3,0,8.3,0.8,12.1,2.4c3.8,1.6,7.1,3.9,9.9,6.7c2.8,2.8,5.1,6.1,6.7,9.9
			c1.6,3.8,2.4,7.8,2.4,12.1v77L1280.4,296.4L1280.4,296.4z M1271.9,245H1245c-2.6,0-5,0.5-7.2,1.5c-2.2,1-4.2,2.3-5.9,4
			c-1.7,1.7-3,3.7-3.9,5.9c-1,2.2-1.5,4.6-1.5,7.2v4.5c0,2.6,0.5,5,1.5,7.2c1,2.2,2.3,4.2,3.9,5.9c1.7,1.7,3.6,3,5.9,3.9
			c2.2,1,4.6,1.4,7.2,1.4h8.5c2.6,0,5-0.5,7.2-1.4c2.2-1,4.2-2.3,5.9-3.9c1.7-1.7,3-3.6,3.9-5.9c1-2.2,1.5-4.6,1.5-7.2L1271.9,245
			L1271.9,245z"/>
		<path class="st5" d="M1348.8,296.4c-3.9,0-7.5-0.7-10.9-2.2c-3.4-1.5-6.4-3.5-8.9-6c-2.5-2.6-4.5-5.5-6-8.9
			c-1.5-3.4-2.2-7-2.2-10.9v-66h-19.1v-12.1h19.1v-25.5l12.7-2.1v27.6h26.9v12.1h-26.9V269c0,2.1,0.4,4.1,1.2,6
			c0.8,1.8,1.9,3.4,3.3,4.8c1.4,1.4,3,2.5,4.9,3.3c1.9,0.8,3.9,1.2,6,1.2h11.6v12.1L1348.8,296.4L1348.8,296.4z"/>
		<path class="st5" d="M1387,164.8v-17h14.8v17H1387z M1388,296.4V190.3h12.7v106.1H1388z"/>
		<path class="st5" d="M1498.9,279.4c-1.6,3.8-3.9,7.1-6.7,9.9c-2.8,2.8-6.1,5.1-9.9,6.7c-3.8,1.6-7.8,2.4-12.1,2.4h-8.5
			c-4.3,0-8.3-0.8-12.1-2.4c-3.8-1.6-7.1-3.8-9.9-6.7c-2.8-2.8-5.1-6.1-6.7-9.9c-1.6-3.8-2.4-7.8-2.4-12.1v-47.9
			c0-4.3,0.8-8.3,2.4-12.1c1.6-3.8,3.8-7.1,6.7-9.9c2.8-2.8,6.1-5.1,9.9-6.7c3.8-1.6,7.8-2.4,12.1-2.4h8.5c4.3,0,8.3,0.8,12.1,2.4
			c3.8,1.6,7.1,3.9,9.9,6.7c2.8,2.8,5.1,6.1,6.7,9.9c1.6,3.8,2.4,7.8,2.4,12.1v47.9C1501.4,271.6,1500.6,275.6,1498.9,279.4z
			 M1488.6,218.7c0-2.6-0.5-5-1.4-7.2c-1-2.2-2.3-4.2-3.9-5.9c-1.7-1.7-3.6-3-5.9-3.9c-2.2-1-4.6-1.4-7.2-1.4h-8.5
			c-2.6,0-5,0.5-7.2,1.4c-2.2,1-4.2,2.3-5.9,3.9c-1.7,1.7-3,3.6-3.9,5.9c-1,2.2-1.4,4.6-1.4,7.2V268c0,2.6,0.5,5,1.4,7.2
			c1,2.2,2.3,4.2,3.9,5.9c1.7,1.7,3.6,3,5.9,3.9c2.2,1,4.6,1.4,7.2,1.4h8.5c2.6,0,5-0.5,7.2-1.4c2.2-1,4.2-2.3,5.9-3.9
			c1.7-1.7,3-3.6,3.9-5.9c1-2.2,1.4-4.6,1.4-7.2V218.7z"/>
		<path class="st5" d="M1585,296.4v-77.7c0-2.6-0.5-5-1.5-7.2c-1-2.2-2.3-4.2-3.9-5.9c-1.7-1.7-3.6-3-5.9-3.9
			c-2.2-1-4.6-1.4-7.2-1.4h-8.5c-2.6,0-5,0.5-7.2,1.4c-2.2,1-4.2,2.3-5.9,3.9c-1.7,1.7-3,3.6-3.9,5.9c-1,2.2-1.4,4.6-1.4,7.2v77.7
			h-12.7V190.3h4.2l6.9,10.8c2.9-3.9,6.5-7.1,10.9-9.4c4.4-2.3,9.2-3.5,14.3-3.5h3.2c4.3,0,8.3,0.8,12.1,2.4
			c3.8,1.6,7.1,3.9,9.9,6.7s5.1,6.1,6.7,9.9c1.6,3.8,2.4,7.8,2.4,12.1v77L1585,296.4L1585,296.4z"/>
		<path class="st5" d="M897.1,449.1c0,4.3-0.9,8.2-2.6,11.8c-1.7,3.6-4.1,6.6-7,9.2c-3,2.6-6.4,4.5-10.3,6c-3.9,1.4-8,2.1-12.3,2.1
			h-8.5c-4.3,0-8.4-0.8-12.3-2.4c-3.9-1.6-7.3-3.8-10.3-6.7c-2.9-2.8-5.3-6.1-7-9.9c-1.8-3.8-2.6-7.8-2.6-12.1v-4.2l12.7-2.1v7
			c0,2.6,0.5,5,1.6,7.2c1.1,2.2,2.5,4.2,4.3,5.9c1.8,1.7,3.9,3,6.2,3.9c2.3,1,4.8,1.4,7.4,1.4h8.5c2.6,0,5-0.4,7.4-1.1
			c2.3-0.8,4.4-1.9,6.3-3.3c1.8-1.4,3.3-3.1,4.4-5.1c1.1-2,1.6-4.3,1.6-6.8c0-3.8-0.8-6.9-2.5-9.3c-1.7-2.4-3.9-4.4-6.6-6.1
			c-2.7-1.6-5.8-3-9.3-4c-3.5-1.1-7.1-2.1-10.7-3.2c-3.7-1.1-7.2-2.3-10.7-3.7c-3.5-1.4-6.6-3.2-9.3-5.4c-2.7-2.2-4.9-5.1-6.6-8.4
			c-1.7-3.4-2.5-7.6-2.5-12.6c0-4.3,0.8-8.2,2.5-11.8c1.7-3.6,3.9-6.6,6.7-9.2c2.8-2.6,6.1-4.5,9.9-6c3.8-1.4,7.8-2.1,12.1-2.1h7.5
			c4.3,0,8.3,0.8,12.1,2.4c3.8,1.6,7.1,3.9,9.9,6.7c2.8,2.8,5.1,6.1,6.7,10c1.6,3.8,2.4,7.8,2.4,12.1v0.4l-12.7,2.1v-3.2
			c0-2.5-0.5-5-1.5-7.2c-1-2.2-2.3-4.2-3.9-5.9c-1.7-1.7-3.6-3-5.9-3.9c-2.2-1-4.6-1.5-7.2-1.5h-7.5c-2.6,0-5,0.4-7.2,1.1
			c-2.2,0.8-4.2,1.9-5.9,3.3c-1.7,1.4-3,3.1-3.9,5.1c-1,2-1.5,4.3-1.5,6.8c0,3.7,0.8,6.6,2.5,9c1.7,2.3,3.9,4.3,6.6,5.9
			c2.7,1.6,5.8,2.9,9.3,4c3.5,1.1,7,2.2,10.7,3.3c3.6,1.1,7.2,2.4,10.7,3.9c3.5,1.4,6.6,3.3,9.3,5.6c2.7,2.3,4.9,5.1,6.6,8.6
			C896.3,439.8,897.1,444,897.1,449.1z"/>
		<path class="st5" d="M960.2,476c-3.9,0-7.5-0.7-10.9-2.2c-3.4-1.5-6.4-3.5-8.9-6c-2.5-2.6-4.5-5.5-6-8.9c-1.5-3.4-2.2-7-2.2-10.9
			v-66h-19.1v-12.1h19.1v-25.5l12.7-2.1v27.6h26.9v12.1h-26.9v66.6c0,2.1,0.4,4.1,1.2,6c0.8,1.8,1.9,3.4,3.3,4.8
			c1.4,1.4,3,2.5,4.9,3.3c1.9,0.8,3.9,1.2,6,1.2h11.6V476L960.2,476L960.2,476z"/>
		<path class="st5" d="M1061.8,476l-7-10.6c-2.9,3.8-6.5,6.9-10.9,9.2c-4.4,2.3-9.1,3.5-14.3,3.5h-3.2c-4.3,0-8.3-0.8-12.1-2.4
			c-3.8-1.6-7.1-3.8-9.9-6.7c-2.8-2.8-5.1-6.1-6.7-9.9c-1.6-3.8-2.4-7.8-2.4-12.1v-1c0-4.3,0.8-8.3,2.4-12.1
			c1.6-3.8,3.8-7.1,6.7-9.9c2.8-2.8,6.1-5.1,9.9-6.7c3.8-1.6,7.8-2.4,12.1-2.4h26.9v-16.4c0-2.5-0.5-5-1.4-7.2
			c-1-2.2-2.3-4.2-3.9-5.9c-1.7-1.7-3.6-3-5.9-3.9c-2.2-1-4.6-1.5-7.2-1.5h-7.5c-2.6,0-5,0.5-7.2,1.5c-2.2,1-4.2,2.3-5.9,3.9
			c-1.7,1.7-3,3.6-3.9,5.9c-1,2.2-1.5,4.6-1.5,7.2v3.8l-12.7-2.1v-1c0-4.3,0.8-8.3,2.4-12.1c1.6-3.8,3.9-7.1,6.7-10
			c2.8-2.8,6.1-5.1,9.9-6.7c3.8-1.6,7.8-2.4,12.1-2.4h7.5c4.3,0,8.3,0.8,12.1,2.4c3.8,1.6,7.1,3.9,9.9,6.7c2.8,2.8,5.1,6.1,6.7,10
			c1.6,3.8,2.4,7.8,2.4,12.1v77L1061.8,476L1061.8,476z M1053.3,424.6h-26.9c-2.6,0-5,0.5-7.2,1.4c-2.2,1-4.2,2.3-5.9,4
			c-1.7,1.7-3,3.7-3.9,5.9c-1,2.2-1.5,4.6-1.5,7.2v4.4c0,2.6,0.5,5,1.5,7.2c1,2.2,2.3,4.2,3.9,5.9c1.7,1.6,3.6,3,5.9,3.9
			c2.2,1,4.6,1.4,7.2,1.4h8.5c2.6,0,5-0.5,7.2-1.4c2.2-1,4.2-2.3,5.9-3.9c1.7-1.7,3-3.6,3.9-5.9c1-2.2,1.4-4.6,1.4-7.2L1053.3,424.6
			L1053.3,424.6z"/>
		<path class="st5" d="M1130.2,476c-3.9,0-7.5-0.7-10.9-2.2c-3.4-1.5-6.4-3.5-8.9-6c-2.5-2.6-4.5-5.5-6-8.9c-1.5-3.4-2.2-7-2.2-10.9
			v-66h-19.1v-12.1h19.1v-25.5l12.7-2.1v27.6h26.9v12.1h-26.9v66.6c0,2.1,0.4,4.1,1.2,6c0.8,1.8,1.9,3.4,3.3,4.8
			c1.4,1.4,3,2.5,4.9,3.3c1.9,0.8,3.9,1.2,6,1.2h11.6V476L1130.2,476L1130.2,476z"/>
		<path class="st5" d="M1168.4,344.5v-17h14.8v17H1168.4z M1169.5,476V369.9h12.7V476L1169.5,476L1169.5,476z"/>
		<path class="st5" d="M1280.4,459c-1.6,3.8-3.9,7.1-6.7,9.9c-2.8,2.8-6.1,5.1-9.9,6.7c-3.8,1.6-7.8,2.4-12.1,2.4h-8.5
			c-4.3,0-8.3-0.8-12.1-2.4c-3.8-1.6-7.1-3.8-9.9-6.7c-2.8-2.8-5.1-6.1-6.7-9.9c-1.6-3.8-2.4-7.8-2.4-12.1v-47.9
			c0-4.3,0.8-8.3,2.4-12.1c1.6-3.8,3.9-7.1,6.7-10c2.8-2.8,6.1-5.1,9.9-6.7c3.8-1.6,7.8-2.4,12.1-2.4h8.5c4.3,0,8.3,0.8,12.1,2.4
			c3.8,1.6,7.1,3.9,9.9,6.7c2.8,2.8,5.1,6.1,6.7,10c1.6,3.8,2.4,7.8,2.4,12.1v47.9C1282.8,451.2,1282,455.2,1280.4,459z M1270,398.3
			c0-2.5-0.5-5-1.4-7.2c-1-2.2-2.3-4.2-3.9-5.9c-1.7-1.7-3.6-3-5.9-3.9c-2.2-1-4.6-1.5-7.2-1.5h-8.5c-2.6,0-5,0.5-7.2,1.5
			c-2.2,1-4.2,2.3-5.9,3.9c-1.7,1.7-3,3.6-3.9,5.9c-1,2.2-1.4,4.6-1.4,7.2v49.3c0,2.6,0.5,5,1.4,7.2c1,2.2,2.3,4.2,3.9,5.9
			c1.7,1.6,3.6,3,5.9,3.9c2.2,1,4.6,1.4,7.2,1.4h8.5c2.6,0,5-0.5,7.2-1.4c2.2-1,4.2-2.3,5.9-3.9c1.7-1.7,3-3.6,3.9-5.9
			c1-2.2,1.4-4.6,1.4-7.2V398.3z"/>
		<path class="st5" d="M1366.4,476v-77.7c0-2.5-0.5-5-1.4-7.2c-1-2.2-2.3-4.2-3.9-5.9c-1.7-1.7-3.6-3-5.9-3.9
			c-2.2-1-4.6-1.5-7.2-1.5h-8.5c-2.6,0-5,0.5-7.2,1.5c-2.2,1-4.2,2.3-5.9,3.9c-1.7,1.7-3,3.6-3.9,5.9c-1,2.2-1.5,4.6-1.5,7.2V476
			h-12.7V369.9h4.2l6.9,10.8c2.9-3.9,6.5-7.1,10.9-9.4c4.4-2.3,9.2-3.5,14.3-3.5h3.2c4.3,0,8.3,0.8,12.1,2.4
			c3.8,1.6,7.1,3.9,9.9,6.7c2.8,2.8,5.1,6.1,6.7,10c1.6,3.8,2.4,7.8,2.4,12.1v77H1366.4L1366.4,476z"/>
	</g>
</g>
<g id="Layer_3">
</g>
<g>
	<path class="st6" d="M461.7,571.5h-7.9v-35.7c5.1-0.2,8.2-0.3,9.5-0.3c5.2,0,9.3,1.5,12.4,4.6c3.1,3.1,4.6,7.1,4.6,12.1
		C480.2,565.1,474,571.5,461.7,571.5z M460.1,541.3v24.4c1,0.1,2.1,0.1,3.3,0.1c3.2,0,5.7-1.2,7.5-3.5c1.8-2.3,2.7-5.6,2.7-9.8
		c0-7.6-3.6-11.5-10.7-11.5C462.3,541.2,461.3,541.2,460.1,541.3z"/>
	<path class="st6" d="M506.3,560.3h-18.7c0.1,2.1,0.8,3.7,2.1,4.9c1.3,1.2,3.1,1.7,5.3,1.7c2.8,0,4.9-0.7,6.3-2.2l2.4,4.7
		c-2.1,1.7-5.4,2.6-9.6,2.6c-4,0-7.1-1.2-9.5-3.5c-2.3-2.3-3.5-5.6-3.5-9.8c0-4.1,1.3-7.5,3.8-10c2.5-2.6,5.6-3.8,9.2-3.8
		c3.8,0,6.8,1.1,9.1,3.4c2.3,2.3,3.4,5.1,3.4,8.6C506.8,557.7,506.7,558.8,506.3,560.3z M487.9,555.7h12.8c-0.4-3.8-2.5-5.7-6.3-5.7
		C490.9,550,488.7,551.9,487.9,555.7z"/>
	<path class="st6" d="M520.1,572h-2.2L506,545.4h6.7l6.3,16l6.7-16h6.5L520.1,572z"/>
	<path class="st6" d="M556.4,560.3h-18.7c0.1,2.1,0.8,3.7,2.1,4.9c1.3,1.2,3.1,1.7,5.3,1.7c2.8,0,4.9-0.7,6.3-2.2l2.4,4.7
		c-2.1,1.7-5.4,2.6-9.6,2.6c-4,0-7.1-1.2-9.5-3.5c-2.3-2.3-3.5-5.6-3.5-9.8c0-4.1,1.3-7.5,3.8-10c2.5-2.6,5.6-3.8,9.2-3.8
		c3.8,0,6.8,1.1,9.1,3.4c2.3,2.3,3.4,5.1,3.4,8.6C556.9,557.7,556.8,558.8,556.4,560.3z M538,555.7h12.8c-0.4-3.8-2.5-5.7-6.3-5.7
		C541,550,538.8,551.9,538,555.7z"/>
	<path class="st6" d="M560.4,535.6l6.1-1.5v29.4c0,3.2,1,5.1,2.9,5.8c-0.9,1.8-2.6,2.7-4.8,2.7c-2.8,0-4.2-1.9-4.2-5.8V535.6z"/>
	<path class="st6" d="M569.9,558.4c0-4,1.2-7.2,3.5-9.7c2.3-2.5,5.3-3.8,9.1-3.8c4,0,7.1,1.2,9.3,3.6c2.2,2.4,3.3,5.7,3.3,9.9
		c0,4.2-1.1,7.5-3.4,9.9c-2.2,2.5-5.3,3.7-9.2,3.7c-4,0-7.1-1.2-9.3-3.7C571,565.8,569.9,562.5,569.9,558.4z M576.2,558.4
		c0,5.8,2.1,8.6,6.2,8.6c1.9,0,3.4-0.7,4.5-2.2c1.1-1.5,1.7-3.6,1.7-6.4c0-5.7-2.1-8.5-6.2-8.5c-1.9,0-3.4,0.7-4.5,2.2
		C576.8,553.6,576.2,555.7,576.2,558.4z"/>
	<path class="st6" d="M603,570.9v10.9h-6.1v-36.4h6.1v1.8c1.5-1.5,3.4-2.2,5.6-2.2c8.3,0,12.5,4.6,12.5,13.8c0,4.3-1.2,7.6-3.5,9.9
		c-2.3,2.3-5.4,3.5-9.4,3.5C606.3,572,604.6,571.6,603,570.9z M603,551.8v13.7c1.1,0.9,2.4,1.3,3.9,1.3c2.8,0,4.8-0.7,6.1-2
		c1.2-1.3,1.8-3.5,1.8-6.4c0-3.1-0.6-5.3-1.8-6.5c-1.2-1.3-3.2-1.9-6.1-1.9C605.4,550.1,604.1,550.6,603,551.8z"/>
	<path class="st6" d="M647.3,560.3h-18.7c0.1,2.1,0.8,3.7,2.1,4.9c1.3,1.2,3.1,1.7,5.3,1.7c2.8,0,4.9-0.7,6.3-2.2l2.4,4.7
		c-2.1,1.7-5.4,2.6-9.6,2.6c-4,0-7.1-1.2-9.5-3.5c-2.3-2.3-3.5-5.6-3.5-9.8c0-4.1,1.3-7.5,3.8-10c2.5-2.6,5.6-3.8,9.2-3.8
		c3.8,0,6.8,1.1,9.1,3.4c2.3,2.3,3.4,5.1,3.4,8.6C647.8,557.7,647.7,558.8,647.3,560.3z M628.9,555.7h12.8c-0.4-3.8-2.5-5.7-6.3-5.7
		C631.9,550,629.7,551.9,628.9,555.7z"/>
	<path class="st6" d="M667,571.5v-1.6c-0.5,0.6-1.4,1-2.6,1.5c-1.2,0.4-2.4,0.6-3.7,0.6c-3.6,0-6.5-1.2-8.6-3.5
		c-2.1-2.3-3.1-5.5-3.1-9.7c0-4.1,1.2-7.5,3.6-10.1c2.4-2.6,5.4-3.9,9-3.9c2,0,3.8,0.4,5.4,1.2v-10.5l6.1-1.5v37.4H667z M667,551.6
		c-1.3-1-2.7-1.6-4.1-1.6c-2.4,0-4.3,0.7-5.6,2.2c-1.3,1.5-2,3.6-2,6.4c0,5.4,2.6,8.2,7.9,8.2c0.6,0,1.3-0.2,2.2-0.5
		c0.9-0.4,1.4-0.7,1.7-1.1V551.6z"/>
	<path class="st6" d="M693.6,570.1l-1.4,1.9h-3.4v-36.4l6.1-1.5v12.2c1.6-1,3.4-1.5,5.3-1.5c3.8,0,6.9,1.2,9.3,3.6
		c2.3,2.4,3.5,5.5,3.5,9.3c0,4.4-1.2,7.8-3.5,10.4c-2.4,2.5-5.6,3.8-9.6,3.8C697.5,572,695.4,571.4,693.6,570.1z M694.9,551.6v13.6
		c0.9,1.1,2.1,1.6,3.6,1.6c2.9,0,5-0.7,6.3-2.1c1.2-1.4,1.8-3.6,1.8-6.7c0-5.3-2.5-8-7.6-8C697.2,550.1,695.9,550.6,694.9,551.6z"/>
	<path class="st6" d="M727.5,575.7c-0.7,1.7-2,3.2-4.2,4.3c-2.1,1.1-4.6,1.7-7.5,1.7v-5.4c4.7,0,7.1-1.2,7.1-3.5c0-1.6-0.7-4-2-7.2
		l-8.2-20.3h6.3l7.1,18.1l6.4-18.1h6.3L727.5,575.7z"/>
	<path class="st6" d="M766.7,541.4v30.1h-6.3v-30.1h-11.4v-5.6h29.6v5.6H766.7z"/>
	<path class="st6" d="M796.7,571.5v-16.1c0-1.6-0.5-2.9-1.5-3.9s-2.3-1.5-4-1.5c-1,0-2,0.3-3.1,0.8c-1,0.5-1.8,1.2-2.2,1.9v18.8
		h-6.2v-35.9l6.2-1.5V547c1.6-1.4,3.8-2.1,6.5-2.1c3.3,0,5.8,0.9,7.6,2.7c1.8,1.8,2.7,4.4,2.7,7.8v16.1H796.7z"/>
	<path class="st6" d="M830.3,560.3h-18.7c0.1,2.1,0.8,3.7,2.1,4.9c1.3,1.2,3.1,1.7,5.3,1.7c2.8,0,4.9-0.7,6.3-2.2l2.4,4.7
		c-2.1,1.7-5.4,2.6-9.6,2.6c-4,0-7.1-1.2-9.5-3.5c-2.3-2.3-3.5-5.6-3.5-9.8c0-4.1,1.3-7.5,3.8-10c2.5-2.6,5.6-3.8,9.2-3.8
		c3.8,0,6.8,1.1,9.1,3.4c2.3,2.3,3.4,5.1,3.4,8.6C830.8,557.7,830.6,558.8,830.3,560.3z M811.8,555.7h12.8c-0.4-3.8-2.5-5.7-6.3-5.7
		C814.9,550,812.7,551.9,811.8,555.7z"/>
	<path class="st6" d="M866.3,571.5l-9.5-14.8c-1,0-2.3-0.1-4-0.2v14.9h-6.6v-35.8c0.4,0,1.7-0.1,4.1-0.2c2.4-0.1,4.3-0.2,5.8-0.2
		c9.1,0,13.6,3.5,13.6,10.5c0,2.1-0.6,4-1.9,5.8c-1.3,1.7-2.8,3-4.7,3.7l10.6,16.1H866.3z M852.7,541.3v9.9c1.2,0.1,2.1,0.1,2.7,0.1
		c2.7,0,4.6-0.4,5.8-1.1c1.2-0.7,1.8-2.2,1.8-4.4c0-1.8-0.7-3-2-3.7c-1.3-0.7-3.4-1-6.2-1C854.2,541.1,853.5,541.2,852.7,541.3z"/>
	<path class="st6" d="M897.1,560.3h-18.7c0.1,2.1,0.8,3.7,2.1,4.9c1.3,1.2,3.1,1.7,5.3,1.7c2.8,0,4.9-0.7,6.3-2.2l2.4,4.7
		c-2.1,1.7-5.4,2.6-9.6,2.6c-4,0-7.1-1.2-9.5-3.5c-2.3-2.3-3.5-5.6-3.5-9.8c0-4.1,1.3-7.5,3.8-10c2.5-2.6,5.6-3.8,9.2-3.8
		c3.8,0,6.8,1.1,9.1,3.4c2.3,2.3,3.4,5.1,3.4,8.6C897.7,557.7,897.5,558.8,897.1,560.3z M878.7,555.7h12.8c-0.4-3.8-2.5-5.7-6.3-5.7
		C881.7,550,879.5,551.9,878.7,555.7z"/>
	<path class="st6" d="M901,550.3h-3v-4.9h3v-5.3l6.1-2.2v7.6h7.2v4.9h-7.2v11.5c0,1.9,0.3,3.2,0.9,4c0.6,0.8,1.6,1.2,3.1,1.2
		s2.8-0.4,4.1-1.2v5.6c-1.4,0.5-3.4,0.7-6.1,0.7c-2.6,0-4.6-0.7-6-2.2c-1.4-1.5-2.1-3.6-2.1-6.3V550.3z"/>
	<path class="st6" d="M932.5,551.1c-1.1-0.7-2.3-1.1-3.6-1.1c-1.4,0-2.7,0.6-3.8,1.9c-1.1,1.3-1.6,2.9-1.6,4.7v14.9h-6.1v-26.1h6.1
		v2.4c1.7-1.9,4-2.9,6.8-2.9c2.1,0,3.7,0.3,4.8,1L932.5,551.1z"/>
	<path class="st6" d="M934.5,558.4c0-4,1.2-7.2,3.5-9.7c2.3-2.5,5.3-3.8,9.1-3.8c4,0,7.1,1.2,9.3,3.6c2.2,2.4,3.3,5.7,3.3,9.9
		c0,4.2-1.1,7.5-3.4,9.9c-2.2,2.5-5.3,3.7-9.2,3.7c-4,0-7.1-1.2-9.3-3.7C935.6,565.8,934.5,562.5,934.5,558.4z M940.9,558.4
		c0,5.8,2.1,8.6,6.2,8.6c1.9,0,3.4-0.7,4.5-2.2c1.1-1.5,1.7-3.6,1.7-6.4c0-5.7-2.1-8.5-6.2-8.5c-1.9,0-3.4,0.7-4.5,2.2
		C941.4,553.6,940.9,555.7,940.9,558.4z"/>
	<path class="st6" d="M993.1,571.5l-2.6-7.3h-12.3l-2.5,7.3h-7.1l14.3-36.3h2.8l14.4,36.3H993.1z M984.3,546.2l-4.3,13.2h8.6
		L984.3,546.2z"/>
	<path class="st6" d="M1016.1,551.1c-1.1-0.7-2.3-1.1-3.6-1.1c-1.4,0-2.7,0.6-3.8,1.9c-1.1,1.3-1.6,2.9-1.6,4.7v14.9h-6.1v-26.1h6.1
		v2.4c1.7-1.9,4-2.9,6.8-2.9c2.1,0,3.7,0.3,4.8,1L1016.1,551.1z"/>
	<path class="st6" d="M1043.2,560.3h-18.7c0.1,2.1,0.8,3.7,2.1,4.9c1.3,1.2,3.1,1.7,5.3,1.7c2.8,0,4.9-0.7,6.3-2.2l2.4,4.7
		c-2.1,1.7-5.4,2.6-9.6,2.6c-4,0-7.1-1.2-9.5-3.5c-2.3-2.3-3.5-5.6-3.5-9.8c0-4.1,1.3-7.5,3.8-10c2.5-2.6,5.6-3.8,9.2-3.8
		c3.8,0,6.8,1.1,9.1,3.4c2.3,2.3,3.4,5.1,3.4,8.6C1043.7,557.7,1043.5,558.8,1043.2,560.3z M1024.7,555.7h12.8
		c-0.4-3.8-2.5-5.7-6.3-5.7C1027.8,550,1025.6,551.9,1024.7,555.7z"/>
	<path class="st6" d="M1062.9,571.5v-15.1c0-2.2-0.4-3.9-1.3-4.9s-2.3-1.5-4.2-1.5c-0.9,0-1.9,0.3-2.9,0.8c-1,0.5-1.8,1.1-2.4,1.9
		v18.9h-6.1v-26.1h4.4l1.1,2.4c1.7-2,4.1-2.9,7.3-2.9c3.1,0,5.6,0.9,7.4,2.8c1.8,1.9,2.7,4.5,2.7,7.8v16H1062.9z"/>
	<path class="st6" d="M1087.7,568.9c-0.6,0.9-1.5,1.7-2.9,2.2c-1.4,0.6-2.8,0.9-4.3,0.9c-2.8,0-5-0.7-6.6-2.1
		c-1.6-1.4-2.4-3.4-2.4-6c0-3,1.1-5.4,3.4-7.1s5.5-2.6,9.7-2.6c0.7,0,1.6,0.1,2.5,0.4c0-3.1-1.9-4.6-5.8-4.6c-2.3,0-4.2,0.4-5.8,1.1
		l-1.3-4.7c2.1-1,4.6-1.5,7.5-1.5c4,0,6.9,0.9,8.8,2.7c1.9,1.8,2.8,5.3,2.8,10.3v5.6c0,3.5,0.7,5.7,2.1,6.6
		c-0.5,0.9-1.1,1.4-1.7,1.6c-0.6,0.2-1.3,0.3-2.1,0.3c-0.9,0-1.7-0.3-2.4-1S1087.9,569.7,1087.7,568.9z M1087.1,559.2
		c-1-0.2-1.8-0.3-2.3-0.3c-4.8,0-7.2,1.6-7.2,4.7c0,2.3,1.4,3.5,4.1,3.5c3.7,0,5.5-1.8,5.5-5.5V559.2z"/>
	<path class="st6" d="M1109.2,559.9v-5.7h12.9v5.7H1109.2z"/>
	<path class="st6" d="M1162.1,572l-17.4-22.6v22.2h-6.1v-35.8h3.1l16.9,21.6v-21.6h6.1V572H1162.1z"/>
	<path class="st6" d="M1167.8,553.3c0-5.1,1.4-9.4,4.2-12.9c2.8-3.5,6.5-5.3,11.2-5.3c5.1,0,9.1,1.6,11.8,4.8
		c2.7,3.2,4.1,7.7,4.1,13.4s-1.4,10.3-4.3,13.7c-2.8,3.4-6.9,5.1-12.1,5.1c-4.8,0-8.5-1.7-11-5
		C1169,563.8,1167.8,559.2,1167.8,553.3z M1174.4,553.3c0,4.2,0.7,7.4,2.1,9.7s3.5,3.4,6.2,3.4c3.2,0,5.6-1.1,7.3-3.4
		c1.7-2.2,2.5-5.5,2.5-9.8c0-8.4-3.1-12.6-9.3-12.6c-2.8,0-5,1.1-6.5,3.4C1175.1,546.4,1174.4,549.5,1174.4,553.3z"/>
	<path class="st6" d="M1216.7,541.4v30.1h-6.3v-30.1H1199v-5.6h29.6v5.6H1216.7z"/>
	<path class="st6" d="M1248.2,541.4v8.4h12.6v5.4h-12.6v16.4h-6.3v-35.8h23.6v5.6H1248.2z"/>
	<path class="st6" d="M1266.8,553.3c0-5.1,1.4-9.4,4.2-12.9c2.8-3.5,6.5-5.3,11.2-5.3c5.1,0,9.1,1.6,11.8,4.8
		c2.7,3.2,4.1,7.7,4.1,13.4s-1.4,10.3-4.3,13.7c-2.8,3.4-6.9,5.1-12.1,5.1c-4.8,0-8.5-1.7-11-5
		C1268.1,563.8,1266.8,559.2,1266.8,553.3z M1273.4,553.3c0,4.2,0.7,7.4,2.1,9.7s3.5,3.4,6.2,3.4c3.2,0,5.6-1.1,7.3-3.4
		c1.7-2.2,2.5-5.5,2.5-9.8c0-8.4-3.1-12.6-9.3-12.6c-2.8,0-5,1.1-6.5,3.4C1274.2,546.4,1273.4,549.5,1273.4,553.3z"/>
	<path class="st6" d="M1321.4,571.5l-9.5-14.8c-1,0-2.3-0.1-4-0.2v14.9h-6.6v-35.8c0.4,0,1.7-0.1,4.1-0.2c2.4-0.1,4.3-0.2,5.8-0.2
		c9.1,0,13.6,3.5,13.6,10.5c0,2.1-0.6,4-1.9,5.8c-1.3,1.7-2.8,3-4.7,3.7l10.6,16.1H1321.4z M1307.8,541.3v9.9
		c1.2,0.1,2.1,0.1,2.7,0.1c2.7,0,4.6-0.4,5.8-1.1c1.2-0.7,1.8-2.2,1.8-4.4c0-1.8-0.7-3-2-3.7c-1.3-0.7-3.4-1-6.2-1
		C1309.3,541.1,1308.5,541.2,1307.8,541.3z"/>
	<path class="st6" d="M1362,571.5l-9.5-14.8c-1,0-2.3-0.1-4-0.2v14.9h-6.6v-35.8c0.4,0,1.7-0.1,4.1-0.2c2.4-0.1,4.3-0.2,5.8-0.2
		c9.1,0,13.6,3.5,13.6,10.5c0,2.1-0.6,4-1.9,5.8c-1.3,1.7-2.8,3-4.7,3.7l10.6,16.1H1362z M1348.4,541.3v9.9c1.2,0.1,2.1,0.1,2.7,0.1
		c2.7,0,4.6-0.4,5.8-1.1c1.2-0.7,1.8-2.2,1.8-4.4c0-1.8-0.7-3-2-3.7c-1.3-0.7-3.4-1-6.2-1C1349.9,541.1,1349.2,541.2,1348.4,541.3z"
		/>
	<path class="st6" d="M1376.2,541.4v8.4h11.8v5.4h-11.8v10.7h16.2v5.6h-22.6v-35.8h22.8v5.6H1376.2z"/>
	<path class="st6" d="M1394.1,569.6l2.3-5.7c2.5,1.8,5,2.6,7.4,2.6c3.7,0,5.6-1.3,5.6-3.9c0-1.2-0.4-2.4-1.3-3.5
		c-0.9-1.1-2.7-2.3-5.4-3.7c-2.7-1.4-4.6-2.5-5.5-3.4c-1-0.9-1.7-1.9-2.2-3.2c-0.5-1.2-0.8-2.6-0.8-4.1c0-2.8,1-5.1,3-6.9
		c2-1.8,4.6-2.7,7.8-2.7c4.1,0,7.2,0.8,9.1,2.3l-1.9,5.5c-2.2-1.6-4.6-2.4-7.1-2.4c-1.5,0-2.6,0.4-3.4,1.2c-0.8,0.8-1.2,1.8-1.2,3
		c0,2.1,2.3,4.2,6.8,6.4c2.4,1.2,4.1,2.3,5.2,3.2c1.1,1,1.9,2.1,2.4,3.4c0.6,1.3,0.8,2.8,0.8,4.4c0,2.9-1.1,5.3-3.4,7.2
		c-2.3,1.9-5.4,2.8-9.2,2.8C1399.8,572.1,1396.8,571.3,1394.1,569.6z"/>
	<path class="st6" d="M1439.7,571.5l-2.6-7.3h-12.3l-2.5,7.3h-7.1l14.3-36.3h2.8l14.4,36.3H1439.7z M1431,546.2l-4.3,13.2h8.6
		L1431,546.2z"/>
	<path class="st6" d="M1448,571.5v-35.8h6.3v30.1h16.2v5.6H1448z"/>
	<path class="st6" d="M1479.5,541.4v8.4h11.8v5.4h-11.8v10.7h16.2v5.6h-22.6v-35.8h22.8v5.6H1479.5z"/>
</g>
</svg>
