<?xml version="1.0" encoding="utf-8"?>
<!-- Generator: Adobe Illustrator 19.0.0, SVG Export Plug-In . SVG Version: 6.00 Build 0)  -->
<svg version="1.1" id="Layer_1" xmlns="http://www.w3.org/2000/svg" xmlns:xlink="http://www.w3.org/1999/xlink" x="0px" y="0px"
	 width="1280px" height="720px" viewBox="334 37 1280 720" enable-background="new 334 37 1280 720" xml:space="preserve">
<g id="Layer_2">
</g>
<path fill="#C90012" d="M764.5,355L764.5,355L764.5,355z"/>
<path fill="#C90012" d="M764.5,272.1L764.5,272.1L764.5,272.1z"/>
<path fill="#C90012" d="M764.5,189.2L764.5,189.2L764.5,189.2z"/>
<path fill="#C90012" d="M764.5,230.6L764.5,230.6L764.5,230.6z"/>
<path fill="#C90012" d="M764.5,396.4L764.5,396.4L764.5,396.4z"/>
<path fill="#C90012" d="M764.5,313.5L764.5,313.5L764.5,313.5z"/>
<path fill="#C90012" d="M764.5,147.7L764.5,147.7L764.5,147.7z"/>
<linearGradient id="SVGID_1_" gradientUnits="userSpaceOnUse" x1="501.3952" y1="129.7872" x2="706.8845" y2="444.7714" gradientTransform="matrix(1 0 0 -1 -50 585)">
	<stop  offset="0" style="stop-color:#004E73"/>
	<stop  offset="1" style="stop-color:#00A1B0"/>
</linearGradient>
<path fill="url(#SVGID_1_)" d="M764.5,158.8c0-6.1-5-11.1-11.1-11.1H402.6c-6.1,0-14.6,3.5-19,7.9l-25.7,25.7
	c-4.3,4.3-7.9,12.9-7.9,19v226.5c0,6.1,5,11.1,11.1,11.1H712c6.1,0,14.6-3.5,19-7.9l25.7-25.7c4.3-4.3,7.9-12.9,7.9-19L764.5,158.8z
	"/>
<path opacity="0.2" enable-background="new    " d="M715.3,305.7L689.5,280c-4.3-4.3-12.9-7.9-19-7.9h-19.2c-6.1,0-11.1,0-11.1,0
	s3.5-3.5,7.9-7.9l67.2-67.2c4.3-4.3,2.9-7.9-3.3-7.9H609.8c-6.1,0-14.6,3.5-19,7.9L358.1,429.7c-1.8,1.8-3.5,3.5-4.9,4.9
	c2,2,4.8,3.3,7.8,3.3l0,0h100h168c6.1,0,11.1,0,11.1,0s3.6-3.6,7.9-7.9l67.1-67.1c4.3-4.3,7.9-12.9,7.9-19v-19.2
	C723.1,318.5,719.5,310,715.3,305.7z"/>
<path fill="#69FF68" d="M609.8,313.5c-6.1,0-14.6-3.5-19-7.9l-25.7-25.7c-4.3-4.3-7.9-12.9-7.9-19v-19.2c0-6.1,3.5-14.6,7.8-19
	l25.7-25.7c4.3-4.3,12.9-7.9,19-7.9H712c6.1,0,7.6,3.5,3.3,7.9l-25.7,25.7c-4.3,4.3-12.9,7.9-19,7.9h-60.7c-6.1,0-11.1,5-11.1,11.1
	V261c0,6.1,5,11.1,11.1,11.1h60.7c6.1,0,14.6,3.5,19,7.9l25.7,25.7c4.3,4.3,7.9,12.9,7.9,19v19.2c0,6.1-3.5,14.6-7.9,19l-25.7,25.7
	c-4.3,4.3-12.9,7.9-19,7.9h-60.7c-6.1,0-14.6-3.5-19-7.9l-25.7-25.7c-4.3-4.3-2.9-7.9,3.3-7.9h102.1c6.1,0,11.1-5,11.1-11.1v-19.2
	c0-6.1,0-11.1,0-11.1s-5,0-11.1,0L609.8,313.5z"/>
<g opacity="0.2">
	<path d="M350,283.7c0-6.1,0-11.2,0-11.4s3.5-3.8,7.9-8.1L425,197c4.3-4.3,12.9-7.9,19-7.9h102.2c6.1,0,7.6,3.5,3.3,7.9l-67.2,67.2
		c-4.3,4.3-7.9,7.9-7.9,7.9s5,0,11.1,0h19.2c6.1,0,10.8,5,10.3,11.1l-1.1,15.6c-0.4,6.1-1.7,12-2.8,13.1c-1.1,1.1-5.6,5.6-9.9,9.9
		L476,347c-4.3,4.3-7.9,7.9-7.9,7.9s4.9,0.1,11,0.1h18c6.1,0,14.8,3.4,19.3,7.5l26.8,24.7c4.5,4.1,8.2,7.6,8.1,7.8
		c-0.1,0.1-3.8,3.8-8.1,8.1L508.5,438H361.3c-6.1,0-11.1-5-11.1-11.1L350,283.7z"/>
</g>
<path fill="#69FF68" d="M444,355c-6.1,0-11.1-5-11.1-11.1v-19.2c0-6.1,5-11.1,11.1-11.1h60.7c6.1,0,11.1-5,11.1-11.1v-19.2
	c0-6.1-5-11.1-11.1-11.1H444c-6.1,0-11.1-5-11.1-11.1v-19.2c0-6.1,5-11.1,11.1-11.1h60.7c6.1,0,14.6-3.5,19-7.9l25.7-25.7
	c4.3-4.3,2.9-7.9-3.3-7.9H444c-6.1,0-14.6,3.5-19,7.9l-25.7,25.7c-4.3,4.3-7.9,12.9-7.9,19V344c0,6.1,3.5,14.6,7.9,19l25.7,25.7
	c4.3,4.3,12.9,7.9,19,7.9h102.1c6.1,0,7.6-3.5,3.3-7.9L523.7,363c-4.3-4.3-12.9-7.9-19-7.9L444,355z"/>
<g>
	<path fill="#33FF00" d="M891.6,239.4c-1.6,3.8-3.9,7.1-6.7,9.9c-2.8,2.8-6.1,5.1-9.9,6.7c-3.8,1.6-7.8,2.4-12.1,2.4h-8.5
		c-4.3,0-8.3-0.8-12.1-2.4c-3.8-1.6-7.1-3.8-9.9-6.7c-2.8-2.8-5.1-6.1-6.7-9.9c-1.6-3.8-2.4-7.8-2.4-12.1v-47.9
		c0-4.3,0.8-8.3,2.4-12.1c1.6-3.8,3.8-7.1,6.7-9.9c2.8-2.8,6.1-5.1,9.9-6.7c3.8-1.6,7.8-2.4,12.1-2.4h8.5c4.3,0,8.3,0.8,12.1,2.4
		c3.8,1.6,7.1,3.9,9.9,6.7s5.1,6.1,6.7,9.9c1.6,3.8,2.4,7.8,2.4,12.1v25H836V228c0,2.6,0.5,5,1.5,7.2s2.3,4.2,3.9,5.9
		c1.7,1.7,3.6,3,5.9,3.9c2.2,1,4.6,1.4,7.2,1.4h8.5c2.6,0,5-0.5,7.2-1.4c2.2-1,4.2-2.3,5.9-3.9c1.7-1.7,3-3.6,3.9-5.9
		c1-2.2,1.5-4.6,1.5-7.2v-7l12.7,2.1v4.2C894,231.6,893.3,235.6,891.6,239.4z M881.3,178.7c0-2.6-0.5-5-1.5-7.2s-2.3-4.2-3.9-5.9
		c-1.7-1.7-3.6-3-5.9-3.9c-2.2-1-4.6-1.4-7.2-1.4h-8.5c-2.6,0-5,0.5-7.2,1.4c-2.2,1-4.2,2.3-5.9,3.9c-1.7,1.7-3,3.6-3.9,5.9
		c-1,2.2-1.5,4.6-1.5,7.2v15.7h45.4L881.3,178.7L881.3,178.7z"/>
	<path fill="#33FF00" d="M1031.6,256.4v-77.7c0-2.6-0.5-5-1.5-7.2s-2.3-4.2-3.9-5.9c-1.7-1.7-3.6-3-5.9-3.9c-2.2-1-4.6-1.4-7.2-1.4
		h-6.3c-2.6,0-5,0.5-7.2,1.4c-2.2,1-4.2,2.3-5.9,3.9c-1.7,1.7-3,3.6-4,5.9c-1,2.2-1.4,4.6-1.4,7.2v77.7h-12.6v-77.7
		c0-2.6-0.5-5-1.4-7.2c-1-2.2-2.3-4.2-4-5.9s-3.7-3-5.9-3.9c-2.2-1-4.6-1.4-7.2-1.4h-6.3c-2.6,0-5,0.5-7.2,1.4
		c-2.2,1-4.2,2.3-5.9,3.9c-1.7,1.7-3,3.6-3.9,5.9c-1,2.2-1.5,4.6-1.5,7.2v77.7h-12.7V150.3h4.2l6.9,10.8c2.9-3.9,6.5-7.1,10.9-9.4
		c4.4-2.3,9.2-3.5,14.3-3.5h1c6,0,11.4,1.5,16.3,4.5c4.8,3,8.6,6.9,11.2,11.8c1.3-2.4,2.9-4.6,4.9-6.6c1.9-2,4.1-3.7,6.4-5.1
		c2.4-1.4,4.9-2.5,7.7-3.3s5.6-1.2,8.6-1.2h1c4.3,0,8.3,0.8,12.1,2.4c3.8,1.6,7.1,3.9,9.9,6.7s5.1,6.1,6.7,9.9
		c1.6,3.8,2.4,7.8,2.4,12.1v77H1031.6L1031.6,256.4L1031.6,256.4z"/>
	<path fill="#33FF00" d="M1136.4,256.4l-7-10.8c-2.9,3.9-6.5,7.1-10.9,9.4c-4.3,2.3-9.1,3.5-14.3,3.5h-3.2c-4.3,0-8.3-0.8-12.1-2.4
		c-3.8-1.6-7.1-3.8-9.9-6.7c-2.8-2.8-5.1-6.1-6.7-9.9c-1.6-3.8-2.4-7.8-2.4-12.1v-77h12.7V228c0,2.6,0.5,5,1.4,7.2
		c1,2.2,2.3,4.2,3.9,5.9c1.7,1.7,3.6,3,5.9,3.9c2.2,1,4.6,1.4,7.2,1.4h8.5c2.5,0,5-0.5,7.2-1.4c2.2-1,4.2-2.3,5.9-3.9
		c1.7-1.7,3-3.6,3.9-5.9c1-2.2,1.5-4.6,1.5-7.2v-77.7h12.7v106.1H1136.4z"/>
	<path fill="#33FF00" d="M1170.4,256.4V107.9h12.7v148.5H1170.4z"/>
	<path fill="#33FF00" d="M1279.4,256.4l-7-10.6c-2.9,3.8-6.5,6.9-10.9,9.2c-4.3,2.3-9.1,3.5-14.3,3.5h-3.2c-4.3,0-8.3-0.8-12.1-2.4
		c-3.8-1.6-7.1-3.8-9.9-6.7c-2.8-2.8-5.1-6.1-6.7-9.9c-1.6-3.8-2.4-7.8-2.4-12.1v-1c0-4.3,0.8-8.3,2.4-12.1c1.6-3.8,3.8-7.1,6.7-9.9
		c2.8-2.8,6.1-5.1,9.9-6.7c3.8-1.6,7.8-2.4,12.1-2.4h26.9v-16.4c0-2.6-0.5-5-1.4-7.2c-1-2.2-2.3-4.2-3.9-5.9c-1.7-1.7-3.6-3-5.9-3.9
		c-2.2-1-4.6-1.4-7.2-1.4h-7.5c-2.6,0-5,0.5-7.2,1.4c-2.2,1-4.2,2.3-5.9,3.9c-1.7,1.7-3,3.6-3.9,5.9c-1,2.2-1.4,4.6-1.4,7.2v3.8
		l-12.7-2.1v-1c0-4.3,0.8-8.3,2.4-12.1c1.6-3.8,3.9-7.1,6.7-9.9c2.8-2.8,6.1-5.1,9.9-6.7c3.8-1.6,7.8-2.4,12.1-2.4h7.5
		c4.3,0,8.3,0.8,12.1,2.4c3.8,1.6,7.1,3.9,9.9,6.7s5.1,6.1,6.7,9.9c1.6,3.8,2.4,7.8,2.4,12.1v77L1279.4,256.4L1279.4,256.4z
		 M1270.9,205h-26.9c-2.6,0-5,0.5-7.2,1.5s-4.2,2.3-5.9,4c-1.7,1.7-3,3.7-3.9,5.9c-1,2.2-1.5,4.6-1.5,7.2v4.5c0,2.6,0.5,5,1.5,7.2
		s2.3,4.2,3.9,5.9c1.7,1.7,3.6,3,5.9,3.9c2.2,1,4.6,1.4,7.2,1.4h8.5c2.6,0,5-0.5,7.2-1.4c2.2-1,4.2-2.3,5.9-3.9
		c1.7-1.7,3-3.6,3.9-5.9c1-2.2,1.5-4.6,1.5-7.2L1270.9,205L1270.9,205z"/>
	<path fill="#33FF00" d="M1347.9,256.4c-3.9,0-7.5-0.7-10.9-2.2c-3.4-1.5-6.4-3.5-8.9-6c-2.5-2.6-4.5-5.5-6-8.9s-2.2-7-2.2-10.9v-66
		h-19.1v-12.1h19.1v-25.5l12.7-2.1v27.6h26.9v12.1h-26.9V229c0,2.1,0.4,4.1,1.2,6c0.8,1.8,1.9,3.4,3.3,4.8c1.4,1.4,3,2.5,4.9,3.3
		c1.9,0.8,3.9,1.2,6,1.2h11.6v12.1L1347.9,256.4L1347.9,256.4z"/>
	<path fill="#33FF00" d="M1386.1,124.9v-17h14.8v17H1386.1z M1387.1,256.4V150.3h12.7v106.1H1387.1z"/>
	<path fill="#33FF00" d="M1497.9,239.4c-1.6,3.8-3.9,7.1-6.7,9.9c-2.8,2.8-6.1,5.1-9.9,6.7s-7.8,2.4-12.1,2.4h-8.5
		c-4.3,0-8.3-0.8-12.1-2.4c-3.8-1.6-7.1-3.8-9.9-6.7c-2.8-2.8-5.1-6.1-6.7-9.9c-1.6-3.8-2.4-7.8-2.4-12.1v-47.9
		c0-4.3,0.8-8.3,2.4-12.1c1.6-3.8,3.8-7.1,6.7-9.9c2.8-2.8,6.1-5.1,9.9-6.7c3.8-1.6,7.8-2.4,12.1-2.4h8.5c4.3,0,8.3,0.8,12.1,2.4
		c3.8,1.6,7.1,3.9,9.9,6.7s5.1,6.1,6.7,9.9c1.6,3.8,2.4,7.8,2.4,12.1v47.9C1500.4,231.6,1499.6,235.6,1497.9,239.4z M1487.6,178.7
		c0-2.6-0.5-5-1.4-7.2c-1-2.2-2.3-4.2-3.9-5.9c-1.7-1.7-3.6-3-5.9-3.9c-2.2-1-4.6-1.4-7.2-1.4h-8.5c-2.6,0-5,0.5-7.2,1.4
		c-2.2,1-4.2,2.3-5.9,3.9c-1.7,1.7-3,3.6-3.9,5.9c-1,2.2-1.4,4.6-1.4,7.2V228c0,2.6,0.5,5,1.4,7.2c1,2.2,2.3,4.2,3.9,5.9
		c1.7,1.7,3.6,3,5.9,3.9c2.2,1,4.6,1.4,7.2,1.4h8.5c2.6,0,5-0.5,7.2-1.4c2.2-1,4.2-2.3,5.9-3.9c1.7-1.7,3-3.6,3.9-5.9
		c1-2.2,1.4-4.6,1.4-7.2V178.7z"/>
	<path fill="#33FF00" d="M1584.1,256.4v-77.7c0-2.6-0.5-5-1.5-7.2s-2.3-4.2-3.9-5.9c-1.7-1.7-3.6-3-5.9-3.9c-2.2-1-4.6-1.4-7.2-1.4
		h-8.5c-2.6,0-5,0.5-7.2,1.4c-2.2,1-4.2,2.3-5.9,3.9c-1.7,1.7-3,3.6-3.9,5.9c-1,2.2-1.4,4.6-1.4,7.2v77.7h-12.7V150.3h4.2l6.9,10.8
		c2.9-3.9,6.5-7.1,10.9-9.4c4.4-2.3,9.2-3.5,14.3-3.5h3.2c4.3,0,8.3,0.8,12.1,2.4c3.8,1.6,7.1,3.9,9.9,6.7s5.1,6.1,6.7,9.9
		c1.6,3.8,2.4,7.8,2.4,12.1v77L1584.1,256.4L1584.1,256.4z"/>
	<path fill="#33FF00" d="M896.1,409.1c0,4.3-0.9,8.2-2.6,11.8c-1.7,3.6-4.1,6.6-7,9.2c-3,2.6-6.4,4.5-10.3,6
		c-3.9,1.4-8,2.1-12.3,2.1h-8.5c-4.3,0-8.4-0.8-12.3-2.4c-3.9-1.6-7.3-3.8-10.3-6.7c-2.9-2.8-5.3-6.1-7-9.9
		c-1.8-3.8-2.6-7.8-2.6-12.1v-4.2l12.7-2.1v7c0,2.6,0.5,5,1.6,7.2s2.5,4.2,4.3,5.9c1.8,1.7,3.9,3,6.2,3.9c2.3,1,4.8,1.4,7.4,1.4h8.5
		c2.6,0,5-0.4,7.4-1.1c2.3-0.8,4.4-1.9,6.3-3.3c1.8-1.4,3.3-3.1,4.4-5.1c1.1-2,1.6-4.3,1.6-6.8c0-3.8-0.8-6.9-2.5-9.3
		s-3.9-4.4-6.6-6.1c-2.7-1.6-5.8-3-9.3-4c-3.5-1.1-7.1-2.1-10.7-3.2c-3.7-1.1-7.2-2.3-10.7-3.7c-3.5-1.4-6.6-3.2-9.3-5.4
		c-2.7-2.2-4.9-5.1-6.6-8.4c-1.7-3.4-2.5-7.6-2.5-12.6c0-4.3,0.8-8.2,2.5-11.8c1.7-3.6,3.9-6.6,6.7-9.2s6.1-4.5,9.9-6
		c3.8-1.4,7.8-2.1,12.1-2.1h7.5c4.3,0,8.3,0.8,12.1,2.4s7.1,3.9,9.9,6.7c2.8,2.8,5.1,6.1,6.7,10c1.6,3.8,2.4,7.8,2.4,12.1v0.4
		l-12.7,2.1v-3.2c0-2.5-0.5-5-1.5-7.2s-2.3-4.2-3.9-5.9c-1.7-1.7-3.6-3-5.9-3.9c-2.2-1-4.6-1.5-7.2-1.5h-7.5c-2.6,0-5,0.4-7.2,1.1
		c-2.2,0.8-4.2,1.9-5.9,3.3s-3,3.1-3.9,5.1c-1,2-1.5,4.3-1.5,6.8c0,3.7,0.8,6.6,2.5,9c1.7,2.3,3.9,4.3,6.6,5.9
		c2.7,1.6,5.8,2.9,9.3,4s7,2.2,10.7,3.3c3.6,1.1,7.2,2.4,10.7,3.9c3.5,1.4,6.6,3.3,9.3,5.6c2.7,2.3,4.9,5.1,6.6,8.6
		C895.3,399.9,896.1,404.1,896.1,409.1z"/>
	<path fill="#33FF00" d="M959.3,436.1c-3.9,0-7.5-0.7-10.9-2.2s-6.4-3.5-8.9-6c-2.5-2.6-4.5-5.5-6-8.9s-2.2-7-2.2-10.9v-66h-19.1
		V330h19.1v-25.5l12.7-2.1V330h26.9v12.1h-26.9v66.6c0,2.1,0.4,4.1,1.2,6c0.8,1.8,1.9,3.4,3.3,4.8c1.4,1.4,3,2.5,4.9,3.3
		s3.9,1.2,6,1.2h11.6v12.1H959.3L959.3,436.1z"/>
	<path fill="#33FF00" d="M1060.9,436.1l-7-10.6c-2.9,3.8-6.5,6.9-10.9,9.2c-4.4,2.3-9.1,3.5-14.3,3.5h-3.2c-4.3,0-8.3-0.8-12.1-2.4
		s-7.1-3.8-9.9-6.7c-2.8-2.8-5.1-6.1-6.7-9.9c-1.6-3.8-2.4-7.8-2.4-12.1v-1c0-4.3,0.8-8.3,2.4-12.1c1.6-3.8,3.8-7.1,6.7-9.9
		c2.8-2.8,6.1-5.1,9.9-6.7c3.8-1.6,7.8-2.4,12.1-2.4h26.9v-16.4c0-2.5-0.5-5-1.4-7.2c-1-2.2-2.3-4.2-3.9-5.9c-1.7-1.7-3.6-3-5.9-3.9
		c-2.2-1-4.6-1.5-7.2-1.5h-7.5c-2.6,0-5,0.5-7.2,1.5s-4.2,2.3-5.9,3.9c-1.7,1.7-3,3.6-3.9,5.9c-1,2.2-1.5,4.6-1.5,7.2v3.8l-12.7-2.1
		v-1c0-4.3,0.8-8.3,2.4-12.1c1.6-3.8,3.9-7.1,6.7-10c2.8-2.8,6.1-5.1,9.9-6.7c3.8-1.6,7.8-2.4,12.1-2.4h7.5c4.3,0,8.3,0.8,12.1,2.4
		c3.8,1.6,7.1,3.9,9.9,6.7c2.8,2.8,5.1,6.1,6.7,10c1.6,3.8,2.4,7.8,2.4,12.1v77L1060.9,436.1L1060.9,436.1z M1052.4,384.7h-26.9
		c-2.6,0-5,0.5-7.2,1.4c-2.2,1-4.2,2.3-5.9,4s-3,3.7-3.9,5.9c-1,2.2-1.5,4.6-1.5,7.2v4.4c0,2.6,0.5,5,1.5,7.2s2.3,4.2,3.9,5.9
		c1.7,1.6,3.6,3,5.9,3.9c2.2,1,4.6,1.4,7.2,1.4h8.5c2.6,0,5-0.5,7.2-1.4c2.2-1,4.2-2.3,5.9-3.9c1.7-1.7,3-3.6,3.9-5.9
		c1-2.2,1.4-4.6,1.4-7.2V384.7L1052.4,384.7z"/>
	<path fill="#33FF00" d="M1129.3,436.1c-3.9,0-7.5-0.7-10.9-2.2c-3.4-1.5-6.4-3.5-8.9-6c-2.5-2.6-4.5-5.5-6-8.9s-2.2-7-2.2-10.9v-66
		h-19.1V330h19.1v-25.5l12.7-2.1V330h26.9v12.1h-26.9v66.6c0,2.1,0.4,4.1,1.2,6c0.8,1.8,1.9,3.4,3.3,4.8c1.4,1.4,3,2.5,4.9,3.3
		c1.9,0.8,3.9,1.2,6,1.2h11.6v12.1H1129.3L1129.3,436.1z"/>
	<path fill="#33FF00" d="M1167.4,304.5v-17h14.8v17H1167.4z M1168.6,436.1V330h12.7v106.1H1168.6L1168.6,436.1z"/>
	<path fill="#33FF00" d="M1279.4,419.1c-1.6,3.8-3.9,7.1-6.7,9.9s-6.1,5.1-9.9,6.7s-7.8,2.4-12.1,2.4h-8.5c-4.3,0-8.3-0.8-12.1-2.4
		c-3.8-1.6-7.1-3.8-9.9-6.7c-2.8-2.8-5.1-6.1-6.7-9.9c-1.6-3.8-2.4-7.8-2.4-12.1v-47.9c0-4.3,0.8-8.3,2.4-12.1
		c1.6-3.8,3.9-7.1,6.7-10c2.8-2.8,6.1-5.1,9.9-6.7s7.8-2.4,12.1-2.4h8.5c4.3,0,8.3,0.8,12.1,2.4s7.1,3.9,9.9,6.7
		c2.8,2.8,5.1,6.1,6.7,10c1.6,3.8,2.4,7.8,2.4,12.1V407C1281.9,411.2,1281.1,415.3,1279.4,419.1z M1269.1,358.4c0-2.5-0.5-5-1.4-7.2
		c-1-2.2-2.3-4.2-3.9-5.9c-1.7-1.7-3.6-3-5.9-3.9c-2.2-1-4.6-1.5-7.2-1.5h-8.5c-2.6,0-5,0.5-7.2,1.5s-4.2,2.3-5.9,3.9
		c-1.7,1.7-3,3.6-3.9,5.9c-1,2.2-1.4,4.6-1.4,7.2v49.3c0,2.6,0.5,5,1.4,7.2c1,2.2,2.3,4.2,3.9,5.9c1.7,1.6,3.6,3,5.9,3.9
		c2.2,1,4.6,1.4,7.2,1.4h8.5c2.6,0,5-0.5,7.2-1.4c2.2-1,4.2-2.3,5.9-3.9c1.7-1.7,3-3.6,3.9-5.9c1-2.2,1.4-4.6,1.4-7.2V358.4z"/>
	<path fill="#33FF00" d="M1365.4,436.1v-77.7c0-2.5-0.5-5-1.4-7.2c-1-2.2-2.3-4.2-3.9-5.9c-1.7-1.7-3.6-3-5.9-3.9
		c-2.2-1-4.6-1.5-7.2-1.5h-8.5c-2.6,0-5,0.5-7.2,1.5s-4.2,2.3-5.9,3.9c-1.7,1.7-3,3.6-3.9,5.9c-1,2.2-1.5,4.6-1.5,7.2v77.7h-12.7
		V330h4.2l6.9,10.8c2.9-3.9,6.5-7.1,10.9-9.4c4.4-2.3,9.2-3.5,14.3-3.5h3.2c4.3,0,8.3,0.8,12.1,2.4c3.8,1.6,7.1,3.9,9.9,6.7
		c2.8,2.8,5.1,6.1,6.7,10c1.6,3.8,2.4,7.8,2.4,12.1v77H1365.4L1365.4,436.1z"/>
</g>
<g id="Layer_3">
</g>
<path fill="#33FF00" d="M584.7,560.2h-3v3.8h-27v-37.5h27v3.8h3V560.2z M572.7,556.5V534h-6v22.5H572.7z"/>
<path fill="#33FF00" d="M617,564h-27v-3.8h-3v-30h3v-3.8h27v7.5h-18v7.5h9v7.5h-9v7.5h18V564z"/>
<path fill="#33FF00" d="M649.4,560.2h-3v3.8h-27v-37.5h12v30h6v-30h12V560.2z"/>
<path fill="#33FF00" d="M681.8,564h-27v-3.8h-3v-30h3v-3.8h27v7.5h-18v7.5h9v7.5h-9v7.5h18V564z"/>
<path fill="#33FF00" d="M714.2,564h-30v-37.5h12v30h18V564z"/>
<path fill="#33FF00" d="M746.6,560.2h-3v3.8h-24v-3.8h-3v-30h3v-3.8h24v3.8h3V560.2z M734.6,556.5V534h-6v22.5H734.6z"/>
<path fill="#33FF00" d="M779,545.2h-3v3.8h-15v15h-12v-37.5h27v3.8h3V545.2z M767,541.5V534h-6v7.5H767z"/>
<path fill="#33FF00" d="M811.4,564h-27v-3.8h-3v-30h3v-3.8h27v7.5h-18v7.5h9v7.5h-9v7.5h18V564z"/>
<path fill="#33FF00" d="M843.8,560.2h-3v3.8h-27v-37.5h27v3.8h3V560.2z M831.8,556.5V534h-6v22.5H831.8z"/>
<path fill="#33FF00" d="M890.6,560.2h-3v3.8h-27v-37.5h27v3.8h3v11.3h-3v7.5h3V560.2z M878.6,541.5V534h-6v7.5H878.6z M878.6,556.5
	V549h-6v7.5H878.6z"/>
<path fill="#33FF00" d="M923,545.2h-3v3.8h-6v15h-12v-15h-6v-3.8h-3v-18.8h12v15h6v-15h12V545.2z"/>
<path fill="#33FF00" d="M969.9,534h-9v30h-12v-30h-9v-7.5h30V534z"/>
<path fill="#33FF00" d="M1002.2,564h-12v-15h-6v15h-12v-37.5h12v15h6v-15h12V564z"/>
<path fill="#33FF00" d="M1034.6,564h-27v-3.8h-3v-30h3v-3.8h27v7.5h-18v7.5h9v7.5h-9v7.5h18V564z"/>
<path fill="#33FF00" d="M1081.5,564h-12v-15h-6v15h-12v-37.5h27v3.8h3v11.3h-3v7.5h3V564z M1069.5,541.5V534h-6v7.5H1069.5z"/>
<path fill="#33FF00" d="M1113.8,564h-27v-3.8h-3v-30h3v-3.8h27v7.5h-18v7.5h9v7.5h-9v7.5h18V564z"/>
<path fill="#33FF00" d="M1146.2,534h-9v30h-12v-30h-9v-7.5h30V534z"/>
<path fill="#33FF00" d="M1178.6,564h-12v-15h-6v15h-12v-37.5h27v3.8h3v11.3h-3v7.5h3V564z M1166.6,541.5V534h-6v7.5H1166.6z"/>
<path fill="#33FF00" d="M1211,560.2h-3v3.8h-24v-3.8h-3v-30h3v-3.8h24v3.8h3V560.2z M1199,556.5V534h-6v22.5H1199z"/>
<path fill="#33FF00" d="M1257.9,564h-12v-15h-6v15h-12v-33.8h3v-3.8h24v3.8h3V564z M1245.9,541.5V534h-6v7.5H1245.9z"/>
<path fill="#33FF00" d="M1290.2,564h-12v-15h-6v15h-12v-37.5h27v3.8h3v11.3h-3v7.5h3V564z M1278.2,541.5V534h-6v7.5H1278.2z"/>
<path fill="#33FF00" d="M1322.6,564h-27v-3.8h-3v-30h3v-3.8h27v7.5h-18v7.5h9v7.5h-9v7.5h18V564z"/>
<path fill="#33FF00" d="M1355,564h-12v-30h-6v30h-12v-37.5h27v3.8h3V564z"/>
<path fill="#33FF00" d="M1387.4,564h-12v-15h-6v15h-12v-33.8h3v-3.8h24v3.8h3V564z M1375.4,541.5V534h-6v7.5H1375.4z"/>
<path fill="#33FF00" d="M853.7,647.8h-8v-20h-4v20h-8v-25h18v2.5h2V647.8z"/>
<path fill="#33FF00" d="M875.3,645.3h-2v2.5h-16v-2.5h-2v-20h2v-2.5h16v2.5h2V645.3z M867.3,642.8v-15h-4v15H867.3z"/>
<path fill="#33FF00" d="M896.9,627.8h-6v20h-8v-20h-6v-5h20V627.8z"/>
<path fill="#33FF00" d="M928.1,627.8h-12v5h6v5h-6v10h-8v-22.5h2v-2.5h18V627.8z"/>
<path fill="#33FF00" d="M949.7,645.3h-2v2.5h-16v-2.5h-2v-20h2v-2.5h16v2.5h2V645.3z M941.7,642.8v-15h-4v15H941.7z"/>
<path fill="#33FF00" d="M971.3,647.8h-8v-10h-4v10h-8v-25h18v2.5h2v7.5h-2v5h2V647.8z M963.3,632.8v-5h-4v5H963.3z"/>
<path fill="#33FF00" d="M1002.5,647.8h-8v-10h-4v10h-8v-25h18v2.5h2v7.5h-2v5h2V647.8z M994.5,632.8v-5h-4v5H994.5z"/>
<path fill="#33FF00" d="M1024.1,647.8h-18v-2.5h-2v-20h2v-2.5h18v5h-12v5h6v5h-6v5h12V647.8z"/>
<path fill="#33FF00" d="M1045.7,645.3h-2v2.5h-18v-5h12v-5h-10v-2.5h-2v-10h2v-2.5h18v5h-12v5h10v2.5h2V645.3z"/>
<path fill="#33FF00" d="M1067.3,647.8h-8v-10h-4v10h-8v-22.5h2v-2.5h16v2.5h2V647.8z M1059.3,632.8v-5h-4v5H1059.3z"/>
<path fill="#33FF00" d="M1088.9,647.8h-20v-25h8v20h12V647.8z"/>
<path fill="#33FF00" d="M1110.5,647.8h-18v-2.5h-2v-20h2v-2.5h18v5h-12v5h6v5h-6v5h12V647.8z"/>
</svg>
