<?xml version="1.0" encoding="utf-8"?>
<!-- Generator: Adobe Illustrator 19.0.0, SVG Export Plug-In . SVG Version: 6.00 Build 0)  -->
<svg version="1.1" id="Layer_1" xmlns="http://www.w3.org/2000/svg" xmlns:xlink="http://www.w3.org/1999/xlink" x="0px" y="0px"
	 width="1280px" height="720px" viewBox="334 37 1280 720" enable-background="new 334 37 1280 720" xml:space="preserve">
<g id="Layer_2">
</g>
<g id="Ebene_1">
	<path fill="#C90012" d="M765.5,351L765.5,351L765.5,351z"/>
	<path fill="#C90012" d="M765.5,268.1L765.5,268.1L765.5,268.1z"/>
	<path fill="#C90012" d="M765.5,185.2L765.5,185.2L765.5,185.2z"/>
	<path fill="#C90012" d="M765.5,226.6L765.5,226.6L765.5,226.6z"/>
	<path fill="#C90012" d="M765.5,392.4L765.5,392.4L765.5,392.4z"/>
	<path fill="#C90012" d="M765.5,309.5L765.5,309.5L765.5,309.5z"/>
	<path fill="#C90012" d="M765.5,143.7L765.5,143.7L765.5,143.7z"/>
	
		<linearGradient id="SVGID_1_" gradientUnits="userSpaceOnUse" x1="502.3134" y1="662.192" x2="707.8026" y2="347.2079" gradientTransform="matrix(1 0 0 1 -50 -211)">
		<stop  offset="0" style="stop-color:#004E73"/>
		<stop  offset="1" style="stop-color:#00A1B0"/>
	</linearGradient>
	<path fill="url(#SVGID_1_)" d="M765.5,154.8c0-6.1-5-11.1-11.1-11.1H403.6c-6.1,0-14.6,3.5-19,7.9l-25.7,25.7
		c-4.3,4.3-7.9,12.9-7.9,19v226.5c0,6.1,5,11.1,11.1,11.1H713c6.1,0,14.6-3.5,19-7.9l25.7-25.7c4.3-4.3,7.9-12.9,7.9-19L765.5,154.8
		z"/>
	<path opacity="0.2" enable-background="new    " d="M716.2,301.7l-25.7-25.7c-4.3-4.3-12.9-7.9-19-7.9h-19.2c-6.1,0-11.1,0-11.1,0
		s3.5-3.5,7.9-7.9l67.2-67.2c4.3-4.3,2.9-7.9-3.3-7.9H610.8c-6.1,0-14.6,3.5-19,7.9L359.1,425.7c-1.8,1.8-3.5,3.5-4.9,4.9
		c2,2,4.8,3.3,7.8,3.3c0,0,0,0,0,0h100h168c6.1,0,11.1,0,11.1,0c0,0,3.6-3.6,7.9-7.9l67.1-67.1c4.3-4.3,7.9-12.9,7.9-19v-19.2
		C724.1,314.5,720.5,306,716.2,301.7z"/>
	<path fill="#69FF68" d="M610.8,309.5c-6.1,0-14.6-3.5-19-7.9l-25.7-25.7c-4.3-4.3-7.9-12.9-7.9-19l0-19.2c0-6.1,3.5-14.6,7.8-19
		l25.7-25.7c4.3-4.3,12.9-7.9,19-7.9H713c6.1,0,7.6,3.5,3.3,7.9l-25.7,25.7c-4.3,4.3-12.9,7.9-19,7.9h-60.7c-6.1,0-11.1,5-11.1,11.1
		V257c0,6.1,5,11.1,11.1,11.1l60.7,0c6.1,0,14.6,3.5,19,7.9l25.7,25.7c4.3,4.3,7.9,12.9,7.9,19v19.2c0,6.1-3.5,14.6-7.9,19
		l-25.7,25.7c-4.3,4.3-12.9,7.9-19,7.9h-60.7c-6.1,0-14.6-3.5-19-7.9l-25.7-25.7c-4.3-4.3-2.9-7.9,3.3-7.9h102.1
		c6.1,0,11.1-5,11.1-11.1v-19.2c0-6.1,0-11.1,0-11.1c0,0-5,0-11.1,0L610.8,309.5z"/>
	<g opacity="0.2">
		<path d="M351,279.7c0-6.1,0-11.2,0-11.4s3.5-3.8,7.9-8.1L426,193c4.3-4.3,12.9-7.9,19-7.9h102.2c6.1,0,7.6,3.5,3.3,7.9l-67.2,67.2
			c-4.3,4.3-7.9,7.9-7.9,7.9s5,0,11.1,0l19.2,0c6.1,0,10.8,5,10.3,11.1l-1.1,15.6c-0.4,6.1-1.7,12-2.8,13.1
			c-1.1,1.1-5.6,5.6-9.9,9.9L477,343c-4.3,4.3-7.9,7.9-7.9,7.9c0,0,4.9,0.1,11,0.1h18c6.1,0,14.8,3.4,19.3,7.5l26.8,24.7
			c4.5,4.1,8.2,7.6,8.1,7.8c-0.1,0.1-3.8,3.8-8.1,8.1l-34.8,34.9l-147.2,0c-6.1,0-11.1-5-11.1-11.1L351,279.7z"/>
	</g>
	<path fill="#69FF68" d="M445,351c-6.1,0-11.1-5-11.1-11.1v-19.2c0-6.1,5-11.1,11.1-11.1h60.7c6.1,0,11.1-5,11.1-11.1v-19.2
		c0-6.1-5-11.1-11.1-11.1H445c-6.1,0-11.1-5-11.1-11.1v-19.2c0-6.1,5-11.1,11.1-11.1h60.7c6.1,0,14.6-3.5,19-7.9l25.7-25.7
		c4.3-4.3,2.9-7.9-3.3-7.9H445c-6.1,0-14.6,3.5-19,7.9l-25.7,25.7c-4.3,4.3-7.9,12.9-7.9,19v102.1c0,6.1,3.5,14.6,7.9,19l25.7,25.7
		c4.3,4.3,12.9,7.9,19,7.9h102.1c6.1,0,7.6-3.5,3.3-7.9l-25.7-25.7c-4.3-4.3-12.9-7.9-19-7.9L445,351z"/>
	<g>
		<path fill="#33FF00" d="M892.6,235.4c-1.6,3.8-3.9,7.1-6.7,9.9c-2.8,2.8-6.1,5.1-9.9,6.7c-3.8,1.6-7.8,2.4-12.1,2.4h-8.5
			c-4.3,0-8.3-0.8-12.1-2.4c-3.8-1.6-7.1-3.8-9.9-6.7c-2.8-2.8-5.1-6.1-6.7-9.9c-1.6-3.8-2.4-7.8-2.4-12.1v-47.9
			c0-4.3,0.8-8.3,2.4-12.1c1.6-3.8,3.8-7.1,6.7-9.9c2.8-2.8,6.1-5.1,9.9-6.7c3.8-1.6,7.8-2.4,12.1-2.4h8.5c4.3,0,8.3,0.8,12.1,2.4
			c3.8,1.6,7.1,3.9,9.9,6.7s5.1,6.1,6.7,9.9c1.6,3.8,2.4,7.8,2.4,12.1v25h-58.1V224c0,2.6,0.5,5,1.5,7.2c1,2.2,2.3,4.2,3.9,5.9
			c1.7,1.7,3.6,3,5.9,3.9c2.2,1,4.6,1.4,7.2,1.4h8.5c2.6,0,5-0.5,7.2-1.4c2.2-1,4.2-2.3,5.9-3.9c1.7-1.7,3-3.6,3.9-5.9
			c1-2.2,1.5-4.6,1.5-7.2v-7l12.7,2.1v4.2C895,227.6,894.2,231.6,892.6,235.4z M882.3,174.7c0-2.6-0.5-5-1.5-7.2
			c-1-2.2-2.3-4.2-3.9-5.9c-1.7-1.7-3.6-3-5.9-3.9c-2.2-1-4.6-1.4-7.2-1.4h-8.5c-2.6,0-5,0.5-7.2,1.4c-2.2,1-4.2,2.3-5.9,3.9
			c-1.7,1.7-3,3.6-3.9,5.9c-1,2.2-1.5,4.6-1.5,7.2v15.7h45.4L882.3,174.7L882.3,174.7z"/>
		<path fill="#33FF00" d="M1032.5,252.4v-77.7c0-2.6-0.5-5-1.5-7.2c-1-2.2-2.3-4.2-3.9-5.9c-1.7-1.7-3.6-3-5.9-3.9
			c-2.2-1-4.6-1.4-7.2-1.4h-6.3c-2.6,0-5,0.5-7.2,1.4c-2.2,1-4.2,2.3-5.9,3.9c-1.7,1.7-3,3.6-4,5.9c-1,2.2-1.4,4.6-1.4,7.2v77.7
			h-12.6v-77.7c0-2.6-0.5-5-1.4-7.2c-1-2.2-2.3-4.2-4-5.9c-1.7-1.7-3.7-3-5.9-3.9c-2.2-1-4.6-1.4-7.2-1.4h-6.3c-2.6,0-5,0.5-7.2,1.4
			c-2.2,1-4.2,2.3-5.9,3.9c-1.7,1.7-3,3.6-3.9,5.9c-1,2.2-1.5,4.6-1.5,7.2v77.7h-12.7V146.3h4.2l6.9,10.8c2.9-3.9,6.5-7.1,10.9-9.4
			c4.4-2.3,9.2-3.5,14.3-3.5h1c6,0,11.4,1.5,16.3,4.5c4.8,3,8.6,6.9,11.2,11.8c1.3-2.4,2.9-4.6,4.9-6.6c1.9-2,4.1-3.7,6.4-5.1
			c2.4-1.4,4.9-2.5,7.7-3.3c2.8-0.8,5.6-1.2,8.6-1.2h1c4.3,0,8.3,0.8,12.1,2.4c3.8,1.6,7.1,3.9,9.9,6.7c2.8,2.8,5.1,6.1,6.7,9.9
			c1.6,3.8,2.4,7.8,2.4,12.1v77L1032.5,252.4L1032.5,252.4L1032.5,252.4z"/>
		<path fill="#33FF00" d="M1137.3,252.4l-7-10.8c-2.9,3.9-6.5,7.1-10.9,9.4c-4.3,2.3-9.1,3.5-14.3,3.5h-3.2c-4.3,0-8.3-0.8-12.1-2.4
			c-3.8-1.6-7.1-3.8-9.9-6.7c-2.8-2.8-5.1-6.1-6.7-9.9c-1.6-3.8-2.4-7.8-2.4-12.1v-77h12.7V224c0,2.6,0.5,5,1.4,7.2
			c1,2.2,2.3,4.2,3.9,5.9c1.7,1.7,3.6,3,5.9,3.9c2.2,1,4.6,1.4,7.2,1.4h8.5c2.5,0,5-0.5,7.2-1.4c2.2-1,4.2-2.3,5.9-3.9
			c1.7-1.7,3-3.6,3.9-5.9c1-2.2,1.5-4.6,1.5-7.2v-77.7h12.7v106.1H1137.3z"/>
		<path fill="#33FF00" d="M1171.3,252.4V103.9h12.7v148.5H1171.3z"/>
		<path fill="#33FF00" d="M1280.4,252.4l-7-10.6c-2.9,3.8-6.5,6.9-10.9,9.2c-4.3,2.3-9.1,3.5-14.3,3.5h-3.2c-4.3,0-8.3-0.8-12.1-2.4
			c-3.8-1.6-7.1-3.8-9.9-6.7c-2.8-2.8-5.1-6.1-6.7-9.9c-1.6-3.8-2.4-7.8-2.4-12.1v-1c0-4.3,0.8-8.3,2.4-12.1
			c1.6-3.8,3.8-7.1,6.7-9.9c2.8-2.8,6.1-5.1,9.9-6.7c3.8-1.6,7.8-2.4,12.1-2.4h26.9v-16.4c0-2.6-0.5-5-1.4-7.2
			c-1-2.2-2.3-4.2-3.9-5.9c-1.7-1.7-3.6-3-5.9-3.9c-2.2-1-4.6-1.4-7.2-1.4h-7.5c-2.6,0-5,0.5-7.2,1.4c-2.2,1-4.2,2.3-5.9,3.9
			c-1.7,1.7-3,3.6-3.9,5.9c-1,2.2-1.4,4.6-1.4,7.2v3.8l-12.7-2.1v-1c0-4.3,0.8-8.3,2.4-12.1c1.6-3.8,3.9-7.1,6.7-9.9
			c2.8-2.8,6.1-5.1,9.9-6.7c3.8-1.6,7.8-2.4,12.1-2.4h7.5c4.3,0,8.3,0.8,12.1,2.4c3.8,1.6,7.1,3.9,9.9,6.7c2.8,2.8,5.1,6.1,6.7,9.9
			c1.6,3.8,2.4,7.8,2.4,12.1v77L1280.4,252.4L1280.4,252.4z M1271.9,201H1245c-2.6,0-5,0.5-7.2,1.5c-2.2,1-4.2,2.3-5.9,4
			c-1.7,1.7-3,3.7-3.9,5.9c-1,2.2-1.5,4.6-1.5,7.2v4.5c0,2.6,0.5,5,1.5,7.2c1,2.2,2.3,4.2,3.9,5.9c1.7,1.7,3.6,3,5.9,3.9
			c2.2,1,4.6,1.4,7.2,1.4h8.5c2.6,0,5-0.5,7.2-1.4c2.2-1,4.2-2.3,5.9-3.9c1.7-1.7,3-3.6,3.9-5.9c1-2.2,1.5-4.6,1.5-7.2L1271.9,201
			L1271.9,201z"/>
		<path fill="#33FF00" d="M1348.8,252.4c-3.9,0-7.5-0.7-10.9-2.2c-3.4-1.5-6.4-3.5-8.9-6c-2.5-2.6-4.5-5.5-6-8.9
			c-1.5-3.4-2.2-7-2.2-10.9v-66h-19.1v-12.1h19.1v-25.5l12.7-2.1v27.6h26.9v12.1h-26.9v66.6c0,2.1,0.4,4.1,1.2,6
			c0.8,1.8,1.9,3.4,3.3,4.8c1.4,1.4,3,2.5,4.9,3.3c1.9,0.8,3.9,1.2,6,1.2h11.6v12.1L1348.8,252.4L1348.8,252.4z"/>
		<path fill="#33FF00" d="M1387,120.9v-17h14.8v17H1387z M1388,252.4V146.3h12.7v106.1H1388z"/>
		<path fill="#33FF00" d="M1498.9,235.4c-1.6,3.8-3.9,7.1-6.7,9.9c-2.8,2.8-6.1,5.1-9.9,6.7c-3.8,1.6-7.8,2.4-12.1,2.4h-8.5
			c-4.3,0-8.3-0.8-12.1-2.4c-3.8-1.6-7.1-3.8-9.9-6.7c-2.8-2.8-5.1-6.1-6.7-9.9c-1.6-3.8-2.4-7.8-2.4-12.1v-47.9
			c0-4.3,0.8-8.3,2.4-12.1c1.6-3.8,3.8-7.1,6.7-9.9c2.8-2.8,6.1-5.1,9.9-6.7c3.8-1.6,7.8-2.4,12.1-2.4h8.5c4.3,0,8.3,0.8,12.1,2.4
			c3.8,1.6,7.1,3.9,9.9,6.7c2.8,2.8,5.1,6.1,6.7,9.9c1.6,3.8,2.4,7.8,2.4,12.1v47.9C1501.4,227.6,1500.6,231.6,1498.9,235.4z
			 M1488.6,174.7c0-2.6-0.5-5-1.4-7.2c-1-2.2-2.3-4.2-3.9-5.9c-1.7-1.7-3.6-3-5.9-3.9c-2.2-1-4.6-1.4-7.2-1.4h-8.5
			c-2.6,0-5,0.5-7.2,1.4c-2.2,1-4.2,2.3-5.9,3.9c-1.7,1.7-3,3.6-3.9,5.9c-1,2.2-1.4,4.6-1.4,7.2V224c0,2.6,0.5,5,1.4,7.2
			c1,2.2,2.3,4.2,3.9,5.9c1.7,1.7,3.6,3,5.9,3.9c2.2,1,4.6,1.4,7.2,1.4h8.5c2.6,0,5-0.5,7.2-1.4c2.2-1,4.2-2.3,5.9-3.9
			c1.7-1.7,3-3.6,3.9-5.9c1-2.2,1.4-4.6,1.4-7.2V174.7z"/>
		<path fill="#33FF00" d="M1585,252.4v-77.7c0-2.6-0.5-5-1.5-7.2c-1-2.2-2.3-4.2-3.9-5.9c-1.7-1.7-3.6-3-5.9-3.9
			c-2.2-1-4.6-1.4-7.2-1.4h-8.5c-2.6,0-5,0.5-7.2,1.4c-2.2,1-4.2,2.3-5.9,3.9c-1.7,1.7-3,3.6-3.9,5.9c-1,2.2-1.4,4.6-1.4,7.2v77.7
			h-12.7V146.3h4.2l6.9,10.8c2.9-3.9,6.5-7.1,10.9-9.4c4.4-2.3,9.2-3.5,14.3-3.5h3.2c4.3,0,8.3,0.8,12.1,2.4
			c3.8,1.6,7.1,3.9,9.9,6.7s5.1,6.1,6.7,9.9c1.6,3.8,2.4,7.8,2.4,12.1v77L1585,252.4L1585,252.4z"/>
		<path fill="#33FF00" d="M897.1,405.1c0,4.3-0.9,8.2-2.6,11.8c-1.7,3.6-4.1,6.6-7,9.2c-3,2.6-6.4,4.5-10.3,6
			c-3.9,1.4-8,2.1-12.3,2.1h-8.5c-4.3,0-8.4-0.8-12.3-2.4c-3.9-1.6-7.3-3.8-10.3-6.7c-2.9-2.8-5.3-6.1-7-9.9
			c-1.8-3.8-2.6-7.8-2.6-12.1v-4.2l12.7-2.1v7c0,2.6,0.5,5,1.6,7.2c1.1,2.2,2.5,4.2,4.3,5.9c1.8,1.7,3.9,3,6.2,3.9
			c2.3,1,4.8,1.4,7.4,1.4h8.5c2.6,0,5-0.4,7.4-1.1c2.3-0.8,4.4-1.9,6.3-3.3c1.8-1.4,3.3-3.1,4.4-5.1c1.1-2,1.6-4.3,1.6-6.8
			c0-3.8-0.8-6.9-2.5-9.3c-1.7-2.4-3.9-4.4-6.6-6.1c-2.7-1.6-5.8-3-9.3-4c-3.5-1.1-7.1-2.1-10.7-3.2c-3.7-1.1-7.2-2.3-10.7-3.7
			c-3.5-1.4-6.6-3.2-9.3-5.4c-2.7-2.2-4.9-5.1-6.6-8.4c-1.7-3.4-2.5-7.6-2.5-12.6c0-4.3,0.8-8.2,2.5-11.8c1.7-3.6,3.9-6.6,6.7-9.2
			c2.8-2.6,6.1-4.5,9.9-6c3.8-1.4,7.8-2.1,12.1-2.1h7.5c4.3,0,8.3,0.8,12.1,2.4c3.8,1.6,7.1,3.9,9.9,6.7c2.8,2.8,5.1,6.1,6.7,10
			c1.6,3.8,2.4,7.8,2.4,12.1v0.4l-12.7,2.1v-3.2c0-2.5-0.5-5-1.5-7.2c-1-2.2-2.3-4.2-3.9-5.9c-1.7-1.7-3.6-3-5.9-3.9
			c-2.2-1-4.6-1.5-7.2-1.5h-7.5c-2.6,0-5,0.4-7.2,1.1c-2.2,0.8-4.2,1.9-5.9,3.3c-1.7,1.4-3,3.1-3.9,5.1c-1,2-1.5,4.3-1.5,6.8
			c0,3.7,0.8,6.6,2.5,9c1.7,2.3,3.9,4.3,6.6,5.9c2.7,1.6,5.8,2.9,9.3,4c3.5,1.1,7,2.2,10.7,3.3c3.6,1.1,7.2,2.4,10.7,3.9
			c3.5,1.4,6.6,3.3,9.3,5.6c2.7,2.3,4.9,5.1,6.6,8.6C896.3,395.9,897.1,400.1,897.1,405.1z"/>
		<path fill="#33FF00" d="M960.2,432.1c-3.9,0-7.5-0.7-10.9-2.2c-3.4-1.5-6.4-3.5-8.9-6c-2.5-2.6-4.5-5.5-6-8.9
			c-1.5-3.4-2.2-7-2.2-10.9v-66h-19.1V326h19.1v-25.5l12.7-2.1V326h26.9v12.1h-26.9v66.6c0,2.1,0.4,4.1,1.2,6
			c0.8,1.8,1.9,3.4,3.3,4.8c1.4,1.4,3,2.5,4.9,3.3c1.9,0.8,3.9,1.2,6,1.2h11.6v12.1L960.2,432.1L960.2,432.1z"/>
		<path fill="#33FF00" d="M1061.8,432.1l-7-10.6c-2.9,3.8-6.5,6.9-10.9,9.2c-4.4,2.3-9.1,3.5-14.3,3.5h-3.2c-4.3,0-8.3-0.8-12.1-2.4
			c-3.8-1.6-7.1-3.8-9.9-6.7c-2.8-2.8-5.1-6.1-6.7-9.9c-1.6-3.8-2.4-7.8-2.4-12.1v-1c0-4.3,0.8-8.3,2.4-12.1
			c1.6-3.8,3.8-7.1,6.7-9.9c2.8-2.8,6.1-5.1,9.9-6.7c3.8-1.6,7.8-2.4,12.1-2.4h26.9v-16.4c0-2.5-0.5-5-1.4-7.2
			c-1-2.2-2.3-4.2-3.9-5.9c-1.7-1.7-3.6-3-5.9-3.9c-2.2-1-4.6-1.5-7.2-1.5h-7.5c-2.6,0-5,0.5-7.2,1.5c-2.2,1-4.2,2.3-5.9,3.9
			c-1.7,1.7-3,3.6-3.9,5.9c-1,2.2-1.5,4.6-1.5,7.2v3.8l-12.7-2.1v-1c0-4.3,0.8-8.3,2.4-12.1c1.6-3.8,3.9-7.1,6.7-10
			c2.8-2.8,6.1-5.1,9.9-6.7c3.8-1.6,7.8-2.4,12.1-2.4h7.5c4.3,0,8.3,0.8,12.1,2.4c3.8,1.6,7.1,3.9,9.9,6.7c2.8,2.8,5.1,6.1,6.7,10
			c1.6,3.8,2.4,7.8,2.4,12.1v77L1061.8,432.1L1061.8,432.1z M1053.3,380.7h-26.9c-2.6,0-5,0.5-7.2,1.4c-2.2,1-4.2,2.3-5.9,4
			c-1.7,1.7-3,3.7-3.9,5.9c-1,2.2-1.5,4.6-1.5,7.2v4.4c0,2.6,0.5,5,1.5,7.2c1,2.2,2.3,4.2,3.9,5.9c1.7,1.6,3.6,3,5.9,3.9
			c2.2,1,4.6,1.4,7.2,1.4h8.5c2.6,0,5-0.5,7.2-1.4c2.2-1,4.2-2.3,5.9-3.9c1.7-1.7,3-3.6,3.9-5.9c1-2.2,1.4-4.6,1.4-7.2L1053.3,380.7
			L1053.3,380.7z"/>
		<path fill="#33FF00" d="M1130.2,432.1c-3.9,0-7.5-0.7-10.9-2.2c-3.4-1.5-6.4-3.5-8.9-6c-2.5-2.6-4.5-5.5-6-8.9
			c-1.5-3.4-2.2-7-2.2-10.9v-66h-19.1V326h19.1v-25.5l12.7-2.1V326h26.9v12.1h-26.9v66.6c0,2.1,0.4,4.1,1.2,6
			c0.8,1.8,1.9,3.4,3.3,4.8c1.4,1.4,3,2.5,4.9,3.3c1.9,0.8,3.9,1.2,6,1.2h11.6v12.1L1130.2,432.1L1130.2,432.1z"/>
		<path fill="#33FF00" d="M1168.4,300.5v-17h14.8v17H1168.4z M1169.5,432.1V326h12.7v106.1L1169.5,432.1L1169.5,432.1z"/>
		<path fill="#33FF00" d="M1280.4,415.1c-1.6,3.8-3.9,7.1-6.7,9.9c-2.8,2.8-6.1,5.1-9.9,6.7c-3.8,1.6-7.8,2.4-12.1,2.4h-8.5
			c-4.3,0-8.3-0.8-12.1-2.4c-3.8-1.6-7.1-3.8-9.9-6.7c-2.8-2.8-5.1-6.1-6.7-9.9c-1.6-3.8-2.4-7.8-2.4-12.1v-47.9
			c0-4.3,0.8-8.3,2.4-12.1c1.6-3.8,3.9-7.1,6.7-10c2.8-2.8,6.1-5.1,9.9-6.7c3.8-1.6,7.8-2.4,12.1-2.4h8.5c4.3,0,8.3,0.8,12.1,2.4
			c3.8,1.6,7.1,3.9,9.9,6.7c2.8,2.8,5.1,6.1,6.7,10c1.6,3.8,2.4,7.8,2.4,12.1V403C1282.8,407.2,1282,411.3,1280.4,415.1z
			 M1270,354.4c0-2.5-0.5-5-1.4-7.2c-1-2.2-2.3-4.2-3.9-5.9c-1.7-1.7-3.6-3-5.9-3.9c-2.2-1-4.6-1.5-7.2-1.5h-8.5
			c-2.6,0-5,0.5-7.2,1.5c-2.2,1-4.2,2.3-5.9,3.9c-1.7,1.7-3,3.6-3.9,5.9c-1,2.2-1.4,4.6-1.4,7.2v49.3c0,2.6,0.5,5,1.4,7.2
			c1,2.2,2.3,4.2,3.9,5.9c1.7,1.6,3.6,3,5.9,3.9c2.2,1,4.6,1.4,7.2,1.4h8.5c2.6,0,5-0.5,7.2-1.4c2.2-1,4.2-2.3,5.9-3.9
			c1.7-1.7,3-3.6,3.9-5.9c1-2.2,1.4-4.6,1.4-7.2V354.4z"/>
		<path fill="#33FF00" d="M1366.4,432.1v-77.7c0-2.5-0.5-5-1.4-7.2c-1-2.2-2.3-4.2-3.9-5.9c-1.7-1.7-3.6-3-5.9-3.9
			c-2.2-1-4.6-1.5-7.2-1.5h-8.5c-2.6,0-5,0.5-7.2,1.5c-2.2,1-4.2,2.3-5.9,3.9c-1.7,1.7-3,3.6-3.9,5.9c-1,2.2-1.5,4.6-1.5,7.2v77.7
			h-12.7V326h4.2l6.9,10.8c2.9-3.9,6.5-7.1,10.9-9.4c4.4-2.3,9.2-3.5,14.3-3.5h3.2c4.3,0,8.3,0.8,12.1,2.4c3.8,1.6,7.1,3.9,9.9,6.7
			c2.8,2.8,5.1,6.1,6.7,10c1.6,3.8,2.4,7.8,2.4,12.1v77H1366.4L1366.4,432.1z"/>
	</g>
</g>
<g id="Layer_3">
</g>
<g>
	<path fill="#33FF00" d="M564.3,570.5h-4.5v4.5h-27v-4.5h-4.5v-36h4.5V530h22.5v4.5h4.5v4.5h4.5V570.5z M550.8,566v-4.5h-13.5V539
		h13.5v-4.5h-18V566H550.8z M555.3,561.5V539h-4.5v22.5H555.3z"/>
	<path fill="#33FF00" d="M600.3,575h-27v-4.5h-4.5V566h-4.5v-18h4.5v-4.5h4.5V539h18v4.5h4.5v4.5h4.5V575z M591.3,557v-9h-4.5v4.5
		h-13.5V548h-4.5v13.5h4.5V557H591.3z M586.8,548v-4.5h-13.5v4.5H586.8z M591.3,566v-4.5h-18v4.5H591.3z"/>
	<path fill="#33FF00" d="M636.3,561.5h-4.5v4.5h-4.5v4.5h-4.5v4.5h-9v-4.5h-4.5V566h-4.5v-4.5h-4.5v-18h4.5V539h9v4.5h9V539h9v4.5
		h4.5V561.5z M609.3,557v-13.5h-4.5V557H609.3z M613.8,561.5V557h-4.5v4.5H613.8z M618.3,566v-4.5h-4.5v4.5H618.3z M622.8,561.5V557
		h-4.5v4.5H622.8z M627.3,557v-13.5h-4.5V557H627.3z"/>
	<path fill="#33FF00" d="M672.3,575h-27v-4.5h-4.5V566h-4.5v-18h4.5v-4.5h4.5V539h18v4.5h4.5v4.5h4.5V575z M663.3,557v-9h-4.5v4.5
		h-13.5V548h-4.5v13.5h4.5V557H663.3z M658.8,548v-4.5h-13.5v4.5H658.8z M663.3,566v-4.5h-18v4.5H663.3z"/>
	<path fill="#33FF00" d="M690.3,575h-13.5v-4.5h-4.5v-36h4.5V530h9v4.5h4.5V575z M681.3,566v-31.5h-4.5V566H681.3z"/>
	<path fill="#33FF00" d="M726.3,566h-4.5v4.5h-4.5v4.5h-18v-4.5h-4.5V566h-4.5v-18h4.5v-4.5h4.5V539h18v4.5h4.5v4.5h4.5V566z
		 M699.3,561.5V548h-4.5v13.5H699.3z M712.8,548v-4.5h-13.5v4.5H712.8z M712.8,566v-4.5h-13.5v4.5H712.8z M717.3,561.5V548h-4.5
		v13.5H717.3z"/>
	<path fill="#33FF00" d="M762.3,566h-4.5v4.5h-9v4.5h-4.5v13.5h-13.5V584h-4.5v-40.5h4.5V539h22.5v4.5h4.5v4.5h4.5V566z M748.8,566
		v-4.5h-13.5V548h13.5v-4.5h-18v36h4.5V566H748.8z M753.3,561.5V548h-4.5v13.5H753.3z"/>
	<path fill="#33FF00" d="M798.3,575h-27v-4.5h-4.5V566h-4.5v-18h4.5v-4.5h4.5V539h18v4.5h4.5v4.5h4.5V575z M789.3,557v-9h-4.5v4.5
		h-13.5V548h-4.5v13.5h4.5V557H789.3z M784.8,548v-4.5h-13.5v4.5H784.8z M789.3,566v-4.5h-18v4.5H789.3z"/>
	<path fill="#33FF00" d="M834.3,575h-27v-4.5h-4.5V566h-4.5v-18h4.5v-4.5h4.5V539h9v-4.5h4.5V530h9v4.5h4.5V575z M807.3,561.5V548
		h-4.5v13.5H807.3z M825.3,566v-31.5h-4.5v9h-13.5v4.5h13.5v13.5h-13.5v4.5H825.3z"/>
	<path fill="#33FF00" d="M888.3,566h-4.5v4.5h-4.5v4.5h-22.5v-4.5h-4.5v-36h4.5V530h9v4.5h9v4.5h4.5v4.5h4.5v4.5h4.5V566z
		 M874.8,566v-4.5h-13.5V548h13.5v-4.5h-13.5v-9h-4.5V566H874.8z M879.3,561.5V548h-4.5v13.5H879.3z"/>
	<path fill="#33FF00" d="M924.3,579.5h-4.5v4.5h-4.5v4.5h-18V584h-4.5v-9h4.5v-4.5h-4.5V566h-4.5v-22.5h4.5V539h9v4.5h9V539h9v4.5
		h4.5V579.5z M897.3,561.5v-18h-4.5v18H897.3z M915.3,575v-31.5h-4.5v18h-13.5v4.5h13.5v9H915.3z M910.8,579.5V575h-13.5v4.5H910.8z
		"/>
	<path fill="#33FF00" d="M978.3,548h-9v27h-13.5v-4.5h-4.5V548h-4.5v-4.5h-4.5v-9h4.5V530h27v4.5h4.5V548z M969.3,539v-4.5h-22.5
		v4.5h9v27h4.5v-27H969.3z"/>
	<path fill="#33FF00" d="M1014.3,575h-13.5v-4.5h-9v4.5h-9v-4.5h-4.5v-36h4.5V530h9v4.5h4.5v4.5h9v4.5h4.5v4.5h4.5V575z M1000.8,548
		v-4.5h-13.5v-9h-4.5V566h4.5v-18H1000.8z M1005.3,566v-18h-4.5v18H1005.3z"/>
	<path fill="#33FF00" d="M1050.3,575h-27v-4.5h-4.5V566h-4.5v-18h4.5v-4.5h4.5V539h18v4.5h4.5v4.5h4.5V575z M1041.3,557v-9h-4.5v4.5
		h-13.5V548h-4.5v13.5h4.5V557H1041.3z M1036.8,548v-4.5h-13.5v4.5H1036.8z M1041.3,566v-4.5h-18v4.5H1041.3z"/>
	<path fill="#33FF00" d="M1104.3,575h-13.5v-4.5h-4.5v4.5h-13.5v-4.5h-4.5v-36h4.5V530h22.5v4.5h4.5v4.5h4.5v9h-4.5v4.5h4.5V575z
		 M1090.8,552.5V548h-13.5v-9h13.5v-4.5h-18V566h4.5v-13.5H1090.8z M1095.3,548v-9h-4.5v9H1095.3z M1095.3,566v-13.5h-4.5V566
		H1095.3z"/>
	<path fill="#33FF00" d="M1140.3,575h-27v-4.5h-4.5V566h-4.5v-18h4.5v-4.5h4.5V539h18v4.5h4.5v4.5h4.5V575z M1131.3,557v-9h-4.5v4.5
		h-13.5V548h-4.5v13.5h4.5V557H1131.3z M1126.8,548v-4.5h-13.5v4.5H1126.8z M1131.3,566v-4.5h-18v4.5H1131.3z"/>
	<path fill="#33FF00" d="M1167.3,575h-13.5v-4.5h-4.5V566h-4.5v-13.5h-4.5v-9h4.5v-9h4.5V530h9v4.5h4.5v9h4.5v9h-4.5v9h4.5V575z
		 M1158.3,548v-4.5h-4.5v-9h-4.5v9h-4.5v4.5h4.5v13.5h4.5V548H1158.3z M1158.3,566v-4.5h-4.5v4.5H1158.3z"/>
	<path fill="#33FF00" d="M1194.3,552.5h-9V575h-13.5v-4.5h-4.5V548h4.5v-4.5h4.5V539h13.5v4.5h4.5V552.5z M1176.3,566v-18h-4.5v18
		H1176.3z M1185.3,548v-4.5h-9v4.5H1185.3z"/>
	<path fill="#33FF00" d="M1230.3,566h-4.5v4.5h-4.5v4.5h-18v-4.5h-4.5V566h-4.5v-18h4.5v-4.5h4.5V539h18v4.5h4.5v4.5h4.5V566z
		 M1203.3,561.5V548h-4.5v13.5H1203.3z M1216.8,548v-4.5h-13.5v4.5H1216.8z M1216.8,566v-4.5h-13.5v4.5H1216.8z M1221.3,561.5V548
		h-4.5v13.5H1221.3z"/>
	<path fill="#33FF00" d="M1284.3,575h-13.5v-4.5h-4.5v4.5h-13.5v-4.5h-4.5V539h4.5v-4.5h4.5V530h18v4.5h4.5v4.5h4.5V575z
		 M1275.3,566v-27h-4.5v9h-13.5v-9h-4.5v27h4.5v-13.5h13.5V566H1275.3z M1270.8,539v-4.5h-13.5v4.5H1270.8z"/>
	<path fill="#33FF00" d="M1311.3,552.5h-9V575h-13.5v-4.5h-4.5V548h4.5v-4.5h4.5V539h13.5v4.5h4.5V552.5z M1293.3,566v-18h-4.5v18
		H1293.3z M1302.3,548v-4.5h-9v4.5H1302.3z"/>
	<path fill="#33FF00" d="M1347.3,575h-27v-4.5h-4.5V566h-4.5v-18h4.5v-4.5h4.5V539h18v4.5h4.5v4.5h4.5V575z M1338.3,557v-9h-4.5v4.5
		h-13.5V548h-4.5v13.5h4.5V557H1338.3z M1333.8,548v-4.5h-13.5v4.5H1333.8z M1338.3,566v-4.5h-18v4.5H1338.3z"/>
	<path fill="#33FF00" d="M1383.3,575h-13.5v-4.5h-9v4.5h-9v-4.5h-4.5v-27h4.5V539h22.5v4.5h4.5v4.5h4.5V575z M1369.8,548v-4.5h-18
		V566h4.5v-18H1369.8z M1374.3,566v-18h-4.5v18H1374.3z"/>
	<path fill="#33FF00" d="M1419.3,575h-27v-4.5h-4.5V566h-4.5v-9h4.5v-4.5h4.5V548h-4.5v-4.5h4.5V539h22.5v4.5h4.5V575z
		 M1392.3,561.5V557h-4.5v4.5H1392.3z M1405.8,548v-4.5h-13.5v4.5H1405.8z M1410.3,566v-18h-4.5v4.5h-13.5v4.5h13.5v4.5h-13.5v4.5
		H1410.3z"/>
	<path fill="#33FF00" d="M784.8,661.4h-13.5v-4.5h-4.5v4.5h-13.5v-4.5h-4.5v-36h4.5v-4.5h9v4.5h9v-4.5h9v4.5h4.5V661.4z
		 M762.3,629.9v-4.5h-4.5v-4.5h-4.5v31.5h4.5v-22.5H762.3z M766.8,634.4v-4.5h-4.5v4.5H766.8z M775.8,652.4v-31.5h-4.5v13.5h-4.5
		v4.5h4.5v13.5H775.8z"/>
	<path fill="#33FF00" d="M820.8,656.9h-4.5v4.5h-22.5v-4.5h-4.5v-4.5h-4.5v-27h4.5v-4.5h4.5v-4.5h18v4.5h4.5v4.5h4.5V656.9z
		 M793.8,647.9v-22.5h-4.5v22.5H793.8z M807.3,625.4v-4.5h-13.5v4.5H807.3z M807.3,652.4v-4.5h-13.5v4.5H807.3z M811.8,647.9v-22.5
		h-4.5v22.5H811.8z"/>
	<path fill="#33FF00" d="M856.8,634.4h-9v27h-13.5v-4.5h-4.5v-22.5h-4.5v-4.5h-4.5v-9h4.5v-4.5h27v4.5h4.5V634.4z M847.8,625.4v-4.5
		h-22.5v4.5h9v27h4.5v-27H847.8z"/>
	<path fill="#33FF00" d="M906.3,647.9h-13.5v13.5h-13.5v-4.5h-4.5v-36h4.5v-4.5h22.5v4.5h4.5v9h-4.5v4.5h4.5V647.9z M897.3,638.9
		v-4.5h-13.5v-9h13.5v-4.5h-18v31.5h4.5v-13.5H897.3z"/>
	<path fill="#33FF00" d="M942.3,656.9h-4.5v4.5h-22.5v-4.5h-4.5v-4.5h-4.5v-27h4.5v-4.5h4.5v-4.5h18v4.5h4.5v4.5h4.5V656.9z
		 M915.3,647.9v-22.5h-4.5v22.5H915.3z M928.8,625.4v-4.5h-13.5v4.5H928.8z M928.8,652.4v-4.5h-13.5v4.5H928.8z M933.3,647.9v-22.5
		h-4.5v22.5H933.3z"/>
	<path fill="#33FF00" d="M978.3,661.4h-13.5v-4.5h-4.5v4.5h-13.5v-4.5h-4.5v-36h4.5v-4.5h22.5v4.5h4.5v4.5h4.5v9h-4.5v4.5h4.5V661.4
		z M964.8,638.9v-4.5h-13.5v-9h13.5v-4.5h-18v31.5h4.5v-13.5H964.8z M969.3,634.4v-9h-4.5v9H969.3z M969.3,652.4v-13.5h-4.5v13.5
		H969.3z"/>
	<path fill="#33FF00" d="M1032.3,661.4h-13.5v-4.5h-4.5v4.5h-13.5v-4.5h-4.5v-36h4.5v-4.5h22.5v4.5h4.5v4.5h4.5v9h-4.5v4.5h4.5
		V661.4z M1018.8,638.9v-4.5h-13.5v-9h13.5v-4.5h-18v31.5h4.5v-13.5H1018.8z M1023.3,634.4v-9h-4.5v9H1023.3z M1023.3,652.4v-13.5
		h-4.5v13.5H1023.3z"/>
	<path fill="#33FF00" d="M1063.8,661.4h-27v-4.5h-4.5v-36h4.5v-4.5h22.5v4.5h4.5v9h-4.5v4.5h4.5v9h-4.5v4.5h4.5V661.4z
		 M1054.8,652.4v-4.5h-13.5v-9h13.5v-4.5h-13.5v-9h13.5v-4.5h-18v31.5H1054.8z"/>
	<path fill="#33FF00" d="M1099.8,656.9h-4.5v4.5h-27v-4.5h-4.5v-9h4.5v-9h-4.5v-13.5h4.5v-4.5h4.5v-4.5h22.5v4.5h4.5v13.5h-4.5v4.5
		h4.5V656.9z M1072.8,634.4v-9h-4.5v9H1072.8z M1086.3,652.4v-4.5h-18v4.5H1086.3z M1090.8,625.4v-4.5h-18v4.5H1090.8z
		 M1086.3,638.9v-4.5h-13.5v4.5H1086.3z M1090.8,647.9v-9h-4.5v9H1090.8z"/>
	<path fill="#33FF00" d="M1135.8,661.4h-13.5v-4.5h-4.5v4.5h-13.5v-4.5h-4.5v-31.5h4.5v-4.5h4.5v-4.5h18v4.5h4.5v4.5h4.5V661.4z
		 M1126.8,652.4v-27h-4.5v9h-13.5v-9h-4.5v27h4.5v-13.5h13.5v13.5H1126.8z M1122.3,625.4v-4.5h-13.5v4.5H1122.3z"/>
	<path fill="#33FF00" d="M1167.3,661.4h-27v-4.5h-4.5v-36h4.5v-4.5h9v4.5h4.5v22.5h9v4.5h4.5V661.4z M1158.3,652.4v-4.5h-13.5v-27
		h-4.5v31.5H1158.3z"/>
	<path fill="#33FF00" d="M1198.8,661.4h-27v-4.5h-4.5v-36h4.5v-4.5h22.5v4.5h4.5v9h-4.5v4.5h4.5v9h-4.5v4.5h4.5V661.4z
		 M1189.8,652.4v-4.5h-13.5v-9h13.5v-4.5h-13.5v-9h13.5v-4.5h-18v31.5H1189.8z"/>
</g>
</svg>
