<?xml version="1.0" encoding="utf-8"?>
<!-- Generator: Adobe Illustrator 16.0.0, SVG Export Plug-In . SVG Version: 6.00 Build 0)  -->
<!DOCTYPE svg PUBLIC "-//W3C//DTD SVG 1.1//EN" "http://www.w3.org/Graphics/SVG/1.1/DTD/svg11.dtd">
<svg version="1.1" id="Layer_1" xmlns="http://www.w3.org/2000/svg" xmlns:xlink="http://www.w3.org/1999/xlink" x="0px" y="0px"
	 width="1280px" height="720px" viewBox="0 0 1280 720" enable-background="new 0 0 1280 720" xml:space="preserve">
<g id="Layer_2">
</g>
<g id="Ebene_1">
	<path fill="#C90012" d="M431.529,442.097L431.529,442.097L431.529,442.097z"/>
	<path fill="#C90012" d="M431.529,359.216L431.529,359.216L431.529,359.216z"/>
	<path fill="#C90012" d="M431.529,276.306L431.529,276.306L431.529,276.306z"/>
	<path fill="#C90012" d="M431.529,317.753L431.529,317.753L431.529,317.753z"/>
	<path fill="#C90012" d="M431.529,483.544L431.529,483.544L431.529,483.544z"/>
	<path fill="#C90012" d="M431.529,400.642L431.529,400.642L431.529,400.642z"/>
	<path fill="#C90012" d="M431.529,234.842L431.529,234.842L431.529,234.842z"/>
	
		<linearGradient id="SVGID_1_" gradientUnits="userSpaceOnUse" x1="168.314" y1="38.6772" x2="373.8032" y2="353.6612" gradientTransform="matrix(1 0 0 -1 -50 581)">
		<stop  offset="0" style="stop-color:#004E73"/>
		<stop  offset="1" style="stop-color:#00A1B0"/>
	</linearGradient>
	<path fill="url(#SVGID_1_)" d="M431.529,245.951c0-6.11-4.999-11.108-11.105-11.108H69.563c-6.112,0-14.644,3.534-18.963,7.855
		l-25.745,25.745C20.533,272.764,17,281.296,17,287.406v226.468c0,6.111,4.999,11.109,11.106,11.109h350.86
		c6.107,0,14.645-3.535,18.963-7.854l25.741-25.736c4.32-4.315,7.854-12.853,7.854-18.965L431.529,245.951z"/>
	<path opacity="0.2" enable-background="new    " d="M382.22,392.789l-25.729-25.729c-4.319-4.318-12.854-7.854-18.963-7.854H318.28
		c-6.112,0.001-11.11,0.001-11.11,0.001s3.532-3.534,7.854-7.855l67.195-67.193c4.32-4.321,2.854-7.855-3.253-7.855H276.832
		c-6.111,0-14.643,3.534-18.963,7.855L25.142,516.86c-1.825,1.82-3.517,3.514-4.871,4.865c2.012,2.012,4.786,3.26,7.836,3.26
		c0.005,0,0.01,0,0.016,0h99.953h167.988c6.111,0,11.122-0.014,11.133-0.023c0.015-0.016,3.559-3.562,7.88-7.88l67.144-67.132
		c4.32-4.316,7.854-12.854,7.854-18.963v-19.235C390.073,405.64,386.54,397.104,382.22,392.789z"/>
	<path fill="#69FF68" d="M276.824,400.649c-6.108,0-14.643-3.536-18.96-7.857l-25.71-25.718c-4.321-4.321-7.857-12.855-7.865-18.966
		l-0.012-19.246c-0.008-6.11,3.525-14.643,7.846-18.964l25.741-25.737c4.321-4.321,12.852-7.855,18.963-7.855h102.14
		c6.107,0,7.573,3.534,3.253,7.855l-25.74,25.737c-4.32,4.321-12.853,7.855-18.964,7.855h-60.688c-6.112,0-11.11,4.998-11.11,11.108
		v19.246c0,6.11,4.998,11.108,11.106,11.106l60.702-0.007c6.106-0.002,14.644,3.533,18.963,7.853l25.729,25.729
		c4.32,4.313,7.854,12.851,7.854,18.963v19.235c0,6.108-3.532,14.646-7.854,18.963l-25.739,25.74
		c-4.321,4.315-12.854,7.854-18.965,7.854h-60.688c-6.112,0-14.643-3.536-18.963-7.854l-25.741-25.74
		c-4.32-4.316-2.858-7.854,3.253-7.854h102.14c6.112,0,11.11-4.998,11.11-11.107V411.75c0-6.112,0-11.11,0.003-11.11
		c0.004,0-4.994,0-11.103,0L276.824,400.649z"/>
	<g opacity="0.2">
		<path d="M17.008,370.877c0-6.109,0-11.238,0-11.393c0-0.155,3.532-3.818,7.854-8.138l67.185-67.186
			c4.321-4.321,12.855-7.855,18.963-7.855h102.15c6.108,0,7.574,3.534,3.253,7.855l-67.197,67.182
			c-4.32,4.321-7.853,7.855-7.853,7.855s4.998,0.002,11.11,0.006l19.228,0.007c6.108,0.004,10.75,4.993,10.318,11.086l-1.114,15.593
			c-0.433,6.092-1.707,11.997-2.833,13.122c-1.125,1.125-5.576,5.58-9.896,9.896l-25.201,25.201
			c-4.32,4.314-7.885,7.885-7.922,7.918c-0.034,0.033,4.933,0.063,11.041,0.062h17.979c6.108-0.004,14.784,3.379,19.281,7.52
			l26.836,24.693c4.497,4.138,8.181,7.623,8.058,7.75c-0.126,0.126-3.766,3.763-8.087,8.083l-34.827,34.851l-147.212,0.002
			c-6.107,0-11.105-4.998-11.105-11.11L17.008,370.877z"/>
	</g>
	<path fill="#69FF68" d="M111.01,442.097c-6.107,0-11.104-4.998-11.104-11.107v-19.235c0-6.112,4.998-11.11,11.104-11.11h60.69
		c6.108,0,11.106-4.997,11.106-11.107V370.33c0-6.112-4.998-11.11-11.106-11.11h-60.69c-6.107,0-11.104-4.998-11.104-11.108v-19.246
		c0-6.11,4.998-11.108,11.104-11.108h60.69c6.108,0,14.643-3.534,18.964-7.854l25.749-25.741c4.321-4.319,2.855-7.853-3.253-7.853
		H111.01c-6.107,0-14.643,3.534-18.963,7.855L66.31,309.9c-4.32,4.321-7.857,12.854-7.857,18.964v102.125
		c0,6.109,3.537,14.646,7.857,18.963l25.737,25.74c4.321,4.315,12.855,7.854,18.963,7.854h102.143c6.112,0,7.574-3.536,3.253-7.854
		l-25.741-25.744c-4.32-4.321-12.854-7.857-18.964-7.857L111.01,442.097z"/>
	<g>
		<path fill="#33FF00" d="M558.605,326.562c-1.623,3.8-3.852,7.115-6.684,9.943c-2.832,2.836-6.146,5.06-9.947,6.682
			c-3.796,1.623-7.838,2.434-12.115,2.434h-8.496c-4.283,0-8.324-0.812-12.121-2.434c-3.8-1.623-7.115-3.846-9.942-6.682
			c-2.836-2.828-5.063-6.143-6.683-9.943c-1.626-3.796-2.436-7.838-2.436-12.121v-47.858c0-4.282,0.81-8.324,2.436-12.12
			c1.619-3.801,3.847-7.115,6.683-9.947c2.827-2.833,6.145-5.056,9.942-6.682c3.796-1.619,7.838-2.434,12.121-2.434h8.496
			c4.277,0,8.318,0.815,12.115,2.434c3.801,1.626,7.115,3.85,9.947,6.682s5.061,6.146,6.684,9.947
			c1.622,3.796,2.434,7.838,2.434,12.12v24.964h-58.114v23.618c0,2.556,0.481,4.956,1.45,7.202c0.965,2.243,2.277,4.195,3.936,5.852
			c1.66,1.657,3.608,2.97,5.854,3.938c2.243,0.964,4.643,1.447,7.199,1.447h8.495c2.554,0,4.952-0.482,7.198-1.447
			c2.243-0.968,4.195-2.281,5.854-3.938c1.657-1.657,2.971-3.609,3.938-5.852c0.964-2.246,1.451-4.646,1.451-7.202v-7.042
			l12.739,2.07v4.248C561.038,318.724,560.229,322.765,558.605,326.562z M548.299,265.855c0-2.553-0.486-4.952-1.451-7.199
			c-0.968-2.243-2.279-4.194-3.938-5.852c-1.656-1.658-3.608-2.97-5.853-3.938c-2.247-0.964-4.646-1.45-7.198-1.45h-8.496
			c-2.558,0-4.956,0.486-7.199,1.45c-2.246,0.969-4.194,2.281-5.854,3.938c-1.656,1.657-2.971,3.609-3.935,5.852
			c-0.969,2.247-1.451,4.646-1.451,7.199V281.6h45.375V265.855L548.299,265.855z"/>
		<path fill="#33FF00" d="M698.506,343.55v-77.695c0-2.553-0.481-4.952-1.45-7.199c-0.969-2.243-2.275-4.194-3.938-5.853
			c-1.652-1.657-3.608-2.97-5.854-3.938c-2.246-0.964-4.646-1.45-7.197-1.45h-6.317c-2.558,0-4.956,0.486-7.202,1.45
			c-2.243,0.969-4.21,2.281-5.901,3.938c-1.694,1.657-3.022,3.609-3.99,5.853c-0.967,2.247-1.445,4.646-1.445,7.199v77.695h-12.645
			v-77.695c0-2.553-0.48-4.952-1.448-7.199c-0.97-2.243-2.296-4.194-3.987-5.853c-1.689-1.657-3.658-2.97-5.905-3.938
			c-2.241-0.964-4.643-1.45-7.198-1.45h-6.317c-2.558,0-4.956,0.486-7.198,1.45c-2.247,0.969-4.195,2.281-5.854,3.938
			c-1.657,1.657-2.971,3.609-3.937,5.853c-0.968,2.247-1.45,4.646-1.45,7.199v77.695h-12.739V237.474h4.244l6.941,10.773
			c2.899-3.938,6.54-7.061,10.931-9.376c4.383-2.312,9.166-3.471,14.345-3.471h1.037c6.009,0,11.428,1.485,16.266,4.455
			c4.833,2.97,8.563,6.908,11.188,11.811c1.312-2.419,2.936-4.627,4.867-6.629c1.935-2.005,4.075-3.712,6.423-5.128
			c2.351-1.416,4.905-2.522,7.669-3.318c2.761-0.792,5.627-1.19,8.597-1.19h1.037c4.277,0,8.318,0.815,12.12,2.434
			c3.797,1.626,7.113,3.85,9.945,6.682c2.828,2.832,5.058,6.146,6.685,9.947c1.618,3.796,2.435,7.838,2.435,12.12v76.968h-12.747
			v-0.002H698.506z"/>
		<path fill="#33FF00" d="M803.343,343.55l-7.046-10.773c-2.9,3.938-6.525,7.061-10.878,9.376
			c-4.348,2.312-9.115,3.467-14.294,3.467h-3.211c-4.286,0-8.323-0.812-12.12-2.434c-3.801-1.623-7.114-3.846-9.946-6.682
			c-2.832-2.828-5.061-6.143-6.684-9.943c-1.622-3.796-2.434-7.838-2.434-12.121v-76.966h12.742v77.691
			c0,2.556,0.481,4.956,1.446,7.202c0.969,2.243,2.28,4.195,3.938,5.852c1.656,1.657,3.608,2.97,5.853,3.938
			c2.242,0.964,4.646,1.447,7.203,1.447h8.496c2.549,0,4.952-0.482,7.192-1.447c2.243-0.968,4.198-2.281,5.854-3.938
			c1.657-1.657,2.971-3.609,3.936-5.852c0.97-2.246,1.454-4.646,1.454-7.202v-77.691h12.736V343.55H803.343z"/>
		<path fill="#33FF00" d="M837.319,343.55V195h12.738v148.55H837.319z"/>
		<path fill="#33FF00" d="M946.404,343.55l-7.047-10.567c-2.899,3.8-6.524,6.854-10.882,9.17c-4.348,2.312-9.114,3.467-14.288,3.467
			h-3.217c-4.281,0-8.318-0.812-12.115-2.434c-3.806-1.623-7.118-3.846-9.946-6.682c-2.836-2.828-5.063-6.143-6.684-9.943
			c-1.627-3.796-2.436-7.838-2.436-12.121v-1.037c0-4.279,0.809-8.32,2.436-12.121c1.618-3.796,3.848-7.111,6.684-9.943
			c2.828-2.832,6.144-5.06,9.946-6.682c3.797-1.623,7.834-2.434,12.115-2.434h26.938v-16.368c0-2.553-0.481-4.952-1.45-7.199
			c-0.969-2.243-2.276-4.194-3.938-5.852c-1.651-1.657-3.607-2.97-5.853-3.938c-2.246-0.964-4.646-1.45-7.198-1.45h-7.459
			c-2.558,0-4.956,0.486-7.197,1.45c-2.247,0.969-4.194,2.281-5.855,3.938c-1.652,1.657-2.97,3.609-3.936,5.852
			c-0.969,2.247-1.449,4.646-1.449,7.199v3.835l-12.74-2.075v-1.033c0-4.282,0.812-8.324,2.436-12.12
			c1.622-3.801,3.852-7.115,6.684-9.947c2.828-2.833,6.146-5.056,9.941-6.682c3.797-1.619,7.84-2.434,12.12-2.434h7.459
			c4.278,0,8.319,0.815,12.117,2.434c3.8,1.626,7.113,3.85,9.949,6.682c2.828,2.832,5.057,6.146,6.68,9.947
			c1.622,3.796,2.435,7.838,2.435,12.12v76.968H946.404L946.404,343.55z M937.907,292.167H910.97c-2.558,0-4.956,0.486-7.198,1.451
			c-2.245,0.968-4.193,2.296-5.853,3.988c-1.661,1.695-2.971,3.663-3.938,5.905c-0.971,2.247-1.451,4.646-1.451,7.203v4.451
			c0,2.556,0.48,4.956,1.451,7.202c0.968,2.243,2.274,4.195,3.938,5.852c1.656,1.657,3.604,2.97,5.853,3.938
			c2.242,0.964,4.644,1.447,7.198,1.447h8.496c2.553,0,4.952-0.482,7.198-1.447c2.242-0.968,4.198-2.281,5.853-3.938
			c1.661-1.657,2.972-3.609,3.938-5.852c0.969-2.246,1.45-4.646,1.45-7.202L937.907,292.167L937.907,292.167z"/>
		<path fill="#33FF00" d="M1014.771,343.55c-3.864,0-7.51-0.724-10.932-2.174c-3.418-1.451-6.389-3.456-8.909-6.009
			c-2.52-2.557-4.522-5.526-6.009-8.91c-1.484-3.383-2.225-7.007-2.225-10.876V249.59h-19.063v-12.116h19.063v-25.485l12.738-2.07
			v27.555h26.938v12.116h-26.938v66.611c0,2.143,0.398,4.129,1.194,5.955c0.788,1.833,1.879,3.437,3.261,4.818
			c1.384,1.381,3.004,2.472,4.868,3.264c1.866,0.792,3.864,1.189,6.009,1.189h11.604v12.121L1014.771,343.55L1014.771,343.55z"/>
		<path fill="#33FF00" d="M1052.996,211.989V195h14.813v16.989H1052.996z M1054.033,343.55V237.474h12.74V343.55H1054.033z"/>
		<path fill="#33FF00" d="M1164.93,326.562c-1.623,3.8-3.852,7.115-6.679,9.943c-2.837,2.836-6.149,5.06-9.95,6.682
			c-3.797,1.623-7.838,2.434-12.115,2.434h-8.496c-4.282,0-8.319-0.812-12.116-2.434c-3.805-1.623-7.119-3.846-9.946-6.682
			c-2.837-2.828-5.062-6.143-6.683-9.943c-1.627-3.796-2.437-7.838-2.437-12.121v-47.858c0-4.282,0.81-8.324,2.437-12.12
			c1.619-3.801,3.846-7.115,6.683-9.947c2.827-2.833,6.145-5.056,9.946-6.682c3.797-1.619,7.834-2.434,12.116-2.434h8.496
			c4.277,0,8.318,0.815,12.115,2.434c3.802,1.626,7.114,3.85,9.95,6.682c2.827,2.832,5.056,6.146,6.679,9.947
			c1.622,3.796,2.436,7.838,2.436,12.12v47.858C1167.363,318.724,1166.552,322.765,1164.93,326.562z M1154.622,265.855
			c0-2.553-0.481-4.952-1.449-7.199c-0.97-2.243-2.276-4.194-3.938-5.852c-1.653-1.657-3.608-2.97-5.854-3.938
			c-2.246-0.964-4.646-1.45-7.199-1.45h-8.495c-2.558,0-4.955,0.486-7.197,1.45c-2.247,0.969-4.194,2.281-5.854,3.938
			c-1.661,1.657-2.971,3.609-3.938,5.852c-0.971,2.247-1.45,4.646-1.45,7.199v49.309c0,2.556,0.479,4.956,1.45,7.202
			c0.968,2.243,2.275,4.195,3.938,5.852c1.656,1.657,3.604,2.97,5.854,3.938c2.242,0.964,4.643,1.447,7.197,1.447h8.495
			c2.555,0,4.953-0.482,7.199-1.447c2.243-0.968,4.197-2.281,5.854-3.938c1.661-1.657,2.97-3.609,3.938-5.852
			c0.968-2.246,1.449-4.646,1.449-7.202V265.855z"/>
		<path fill="#33FF00" d="M1250.964,343.55v-77.695c0-2.553-0.485-4.952-1.451-7.199c-0.969-2.243-2.28-4.194-3.935-5.853
			c-1.661-1.657-3.612-2.97-5.855-3.938c-2.242-0.964-4.646-1.45-7.197-1.45h-8.491c-2.559,0-4.96,0.486-7.203,1.45
			c-2.241,0.969-4.193,2.281-5.854,3.938c-1.651,1.657-2.97,3.609-3.935,5.853c-0.969,2.247-1.45,4.646-1.45,7.199v77.695h-12.74
			V237.474h4.248l6.938,10.773c2.899-3.938,6.541-7.061,10.931-9.376c4.382-2.312,9.166-3.471,14.35-3.471h3.211
			c4.281,0,8.318,0.815,12.12,2.434c3.797,1.626,7.109,3.85,9.941,6.682s5.062,6.146,6.684,9.947
			c1.623,3.796,2.436,7.838,2.436,12.12v76.968L1250.964,343.55L1250.964,343.55z"/>
		<path fill="#33FF00" d="M563.109,496.258c0,4.278-0.865,8.198-2.588,11.757c-1.729,3.563-4.075,6.613-7.046,9.17
			c-2.971,2.56-6.405,4.539-10.308,5.955c-3.903,1.416-7.995,2.12-12.276,2.12H522.4c-4.283,0-8.377-0.812-12.277-2.434
			c-3.903-1.623-7.32-3.843-10.257-6.685c-2.938-2.822-5.28-6.14-7.042-9.941c-1.76-3.797-2.642-7.838-2.642-12.116v-4.248
			l12.739-2.074v7.042c0,2.559,0.531,4.961,1.604,7.202c1.069,2.243,2.503,4.194,4.301,5.854c1.795,1.652,3.866,2.971,6.217,3.936
			c2.346,0.965,4.799,1.447,7.354,1.447h8.49c2.559,0,5.007-0.376,7.355-1.135c2.347-0.767,4.438-1.854,6.27-3.27
			c1.829-1.416,3.28-3.123,4.353-5.129c1.067-1.997,1.604-4.277,1.604-6.835c0-3.797-0.825-6.903-2.486-9.323
			c-1.657-2.419-3.852-4.438-6.575-6.062c-2.729-1.623-5.836-2.964-9.322-4.034c-3.49-1.071-7.063-2.146-10.725-3.215
			c-3.663-1.071-7.236-2.296-10.726-3.674c-3.484-1.389-6.594-3.2-9.321-5.442c-2.729-2.242-4.918-5.06-6.575-8.442
			c-1.661-3.384-2.487-7.593-2.487-12.638c0-4.278,0.826-8.196,2.487-11.757c1.657-3.562,3.898-6.613,6.73-9.17
			c2.832-2.558,6.127-4.539,9.895-5.955c3.763-1.416,7.785-2.128,12.066-2.128h7.459c4.282,0,8.323,0.818,12.12,2.435
			c3.796,1.631,7.115,3.853,9.947,6.684c2.827,2.834,5.056,6.146,6.683,9.95c1.618,3.798,2.435,7.839,2.435,12.116v0.413
			l-12.744,2.074v-3.215c0-2.55-0.48-4.953-1.45-7.195c-0.97-2.241-2.275-4.193-3.935-5.854c-1.657-1.653-3.608-2.973-5.854-3.938
			c-2.243-0.964-4.644-1.453-7.198-1.453h-7.459c-2.554,0-4.956,0.384-7.198,1.143c-2.243,0.766-4.195,1.853-5.854,3.261
			c-1.657,1.424-2.971,3.13-3.938,5.128c-0.97,2.006-1.451,4.287-1.451,6.844c0,3.658,0.831,6.646,2.488,8.955
			c1.656,2.319,3.85,4.271,6.579,5.855c2.725,1.592,5.833,2.916,9.321,3.984c3.486,1.072,7.042,2.175,10.67,3.314
			c3.625,1.141,7.182,2.436,10.67,3.889c3.486,1.446,6.596,3.314,9.323,5.588c2.729,2.28,4.922,5.129,6.579,8.553
			C562.282,486.989,563.109,491.214,563.109,496.258z"/>
		<path fill="#33FF00" d="M626.196,523.194c-3.865,0-7.509-0.729-10.928-2.176c-3.421-1.454-6.392-3.461-8.908-6.01
			c-2.521-2.557-4.522-5.523-6.01-8.908c-1.483-3.385-2.229-7.013-2.229-10.877v-65.996h-19.06v-12.115h19.06v-25.479l12.74-2.072
			v27.556H637.8v12.117h-26.937v66.612c0,2.146,0.396,4.126,1.192,5.955c0.792,1.829,1.879,3.438,3.263,4.813
			c1.381,1.386,3.004,2.473,4.866,3.27c1.868,0.788,3.869,1.188,6.009,1.188h11.604v12.123L626.196,523.194L626.196,523.194z"/>
		<path fill="#33FF00" d="M727.821,523.194l-7.042-10.57c-2.899,3.804-6.527,6.856-10.876,9.169
			c-4.354,2.313-9.116,3.468-14.3,3.468h-3.207c-4.285,0-8.327-0.812-12.123-2.434c-3.803-1.623-7.114-3.844-9.943-6.686
			c-2.836-2.822-5.063-6.139-6.682-9.94c-1.627-3.796-2.437-7.839-2.437-12.116v-1.041c0-4.277,0.81-8.32,2.437-12.116
			c1.616-3.797,3.846-7.108,6.682-9.94c2.829-2.832,6.144-5.063,9.943-6.685c3.796-1.622,7.838-2.435,12.123-2.435h26.933v-16.372
			c0-2.549-0.485-4.953-1.449-7.195c-0.97-2.241-2.28-4.192-3.936-5.854c-1.661-1.653-3.612-2.973-5.854-3.938
			c-2.242-0.964-4.646-1.453-7.199-1.453h-7.459c-2.557,0-4.954,0.489-7.2,1.453c-2.243,0.965-4.194,2.281-5.854,3.938
			c-1.657,1.66-2.971,3.611-3.936,5.854c-0.97,2.242-1.45,4.646-1.45,7.195v3.834l-12.744-2.074v-1.032
			c0-4.277,0.813-8.318,2.436-12.115c1.623-3.807,3.851-7.117,6.684-9.95c2.832-2.832,6.146-5.053,9.946-6.685
			c3.796-1.613,7.838-2.435,12.118-2.435h7.459c4.283,0,8.32,0.818,12.121,2.435c3.797,1.632,7.109,3.853,9.941,6.685
			c2.832,2.833,5.061,6.146,6.684,9.95c1.623,3.797,2.436,7.838,2.436,12.115v76.973L727.821,523.194L727.821,523.194z
			 M719.328,471.81h-26.932c-2.563,0-4.962,0.482-7.202,1.447c-2.247,0.975-4.193,2.296-5.854,3.988
			c-1.657,1.699-2.971,3.666-3.936,5.908c-0.97,2.24-1.45,4.646-1.45,7.202v4.445c0,2.56,0.48,4.96,1.45,7.202
			c0.965,2.243,2.275,4.194,3.936,5.855c1.661,1.65,3.607,2.97,5.854,3.935c2.24,0.965,4.643,1.447,7.202,1.447h8.49
			c2.555,0,4.957-0.482,7.199-1.447c2.241-0.965,4.193-2.28,5.854-3.935c1.651-1.661,2.966-3.612,3.936-5.855
			c0.964-2.242,1.449-4.646,1.449-7.202L719.328,471.81L719.328,471.81z"/>
		<path fill="#33FF00" d="M796.193,523.194c-3.869,0-7.515-0.729-10.929-2.176c-3.421-1.454-6.392-3.461-8.907-6.01
			c-2.526-2.557-4.523-5.523-6.011-8.908c-1.483-3.385-2.229-7.013-2.229-10.877v-65.996h-19.06v-12.115h19.06v-25.479l12.741-2.072
			v27.556h26.932v12.117H780.86v66.612c0,2.146,0.395,4.126,1.188,5.955c0.796,1.829,1.883,3.438,3.267,4.813
			c1.382,1.386,3.005,2.473,4.866,3.27c1.864,0.788,3.869,1.188,6.011,1.188h11.6v12.123L796.193,523.194L796.193,523.194z"/>
		<path fill="#33FF00" d="M834.419,391.632v-16.987h14.813v16.987H834.419z M835.455,523.194V417.113h12.74v106.081H835.455
			L835.455,523.194z"/>
		<path fill="#33FF00" d="M946.352,506.201c-1.623,3.805-3.851,7.118-6.683,9.94c-2.832,2.842-6.146,5.063-9.942,6.686
			c-3.802,1.622-7.839,2.434-12.12,2.434h-8.492c-4.286,0-8.327-0.812-12.124-2.434c-3.796-1.623-7.109-3.844-9.941-6.686
			c-2.832-2.822-5.061-6.139-6.684-9.94c-1.623-3.796-2.437-7.839-2.437-12.116v-47.861c0-4.277,0.813-8.318,2.437-12.115
			c1.623-3.807,3.852-7.117,6.684-9.95c2.831-2.832,6.146-5.053,9.941-6.685c3.797-1.613,7.838-2.435,12.124-2.435h8.492
			c4.281,0,8.318,0.819,12.12,2.435c3.798,1.632,7.11,3.853,9.942,6.685c2.831,2.833,5.06,6.146,6.683,9.95
			c1.622,3.797,2.435,7.838,2.435,12.115v47.861C948.783,498.363,947.974,502.405,946.352,506.201z M936.044,445.496
			c0-2.549-0.485-4.953-1.45-7.195c-0.968-2.241-2.281-4.192-3.936-5.854c-1.661-1.653-3.611-2.973-5.854-3.938
			c-2.241-0.964-4.646-1.453-7.197-1.453h-8.492c-2.559,0-4.96,0.489-7.202,1.453c-2.242,0.965-4.193,2.281-5.854,3.938
			c-1.651,1.66-2.97,3.611-3.936,5.854c-0.968,2.242-1.449,4.646-1.449,7.195v49.31c0,2.559,0.481,4.959,1.449,7.201
			c0.966,2.243,2.281,4.194,3.936,5.855c1.661,1.65,3.612,2.97,5.854,3.935c2.242,0.966,4.646,1.447,7.202,1.447h8.492
			c2.554,0,4.956-0.481,7.197-1.447c2.243-0.965,4.193-2.28,5.854-3.935c1.651-1.661,2.968-3.612,3.936-5.855
			c0.965-2.242,1.45-4.646,1.45-7.201V445.496z"/>
		<path fill="#33FF00" d="M1032.385,523.194v-77.698c0-2.549-0.48-4.953-1.449-7.195c-0.97-2.241-2.276-4.192-3.938-5.854
			c-1.652-1.653-3.608-2.973-5.854-3.938c-2.245-0.964-4.646-1.453-7.197-1.453h-8.496c-2.559,0-4.956,0.489-7.198,1.453
			c-2.246,0.965-4.192,2.281-5.853,3.938c-1.661,1.66-2.971,3.611-3.938,5.854c-0.97,2.242-1.451,4.646-1.451,7.195v77.698h-12.738
			V417.113h4.242l6.942,10.774c2.9-3.938,6.545-7.063,10.931-9.375c4.388-2.312,9.17-3.477,14.346-3.477h3.215
			c4.278,0,8.319,0.817,12.117,2.436c3.8,1.629,7.113,3.852,9.949,6.684c2.827,2.833,5.057,6.146,6.68,9.951
			c1.622,3.795,2.435,7.838,2.435,12.113v76.975H1032.385L1032.385,523.194z"/>
	</g>
</g>
<g id="Layer_3">
</g>
</svg>
